ISO-10303-21;
HEADER;
/* Generated by software containing ST-Developer
 * from STEP Tools, Inc. (www.steptools.com) 
 */

FILE_DESCRIPTION(
/* description */ (''),
/* implementation_level */ '2;1');

FILE_NAME(
/* name */ 'rotor_body.stp',
/* time_stamp */ '2026-07-27T10:54:54+02:00',
/* author */ ('26012243'),
/* organization */ (''),
/* preprocessor_version */ 'ST-DEVELOPER v20.1',
/* originating_system */ 'Autodesk Inventor 2026',
/* authorisation */ '');

FILE_SCHEMA (('AUTOMOTIVE_DESIGN { 1 0 10303 214 3 1 1 }'));
ENDSEC;

DATA;
#10=MECHANICAL_DESIGN_GEOMETRIC_PRESENTATION_REPRESENTATION('',(#13),#2103);
#11=SHAPE_REPRESENTATION_RELATIONSHIP('SRR','None',#2110,#12);
#12=ADVANCED_BREP_SHAPE_REPRESENTATION('',(#14),#2102);
#13=STYLED_ITEM('',(#2119),#14);
#14=MANIFOLD_SOLID_BREP('Solid1',#1150);
#15=TOROIDAL_SURFACE('',#1234,58.,2.);
#16=TOROIDAL_SURFACE('',#1237,58.,2.);
#17=TOROIDAL_SURFACE('',#1249,58.,2.);
#18=TOROIDAL_SURFACE('',#1254,58.,2.);
#19=B_SPLINE_CURVE_WITH_KNOTS('',3,(#1824,#1825,#1826,#1827,#1828,#1829,
#1830,#1831,#1832,#1833,#1834,#1835,#1836,#1837,#1838,#1839),
 .UNSPECIFIED.,.F.,.F.,(4,2,2,2,2,2,2,4),(-0.000901585896681072,0.,0.0889479432741239,
0.173784862772849,0.261437369644948,0.327063897277225,0.38392732593807,
0.385534990366029),.UNSPECIFIED.);
#20=B_SPLINE_CURVE_WITH_KNOTS('',3,(#1843,#1844,#1845,#1846,#1847,#1848,
#1849,#1850,#1851,#1852,#1853,#1854,#1855,#1856,#1857,#1858),
 .UNSPECIFIED.,.F.,.F.,(4,2,2,2,2,2,2,4),(-0.899460243521745,-0.89836039403347,
-0.789852319312204,-0.686359304620271,-0.579431539737872,-0.499373385474913,
-0.430005382810535,-0.428044184322357),.UNSPECIFIED.);
#21=B_SPLINE_CURVE_WITH_KNOTS('',3,(#1863,#1864,#1865,#1866,#1867,#1868,
#1869,#1870,#1871,#1872,#1873,#1874,#1875,#1876,#1877,#1878),
 .UNSPECIFIED.,.F.,.F.,(4,2,2,2,2,2,2,4),(-0.899460244795552,-0.898360395304692,
-0.789852320414544,-0.686359305561597,-0.579431540515448,-0.49937338612958,
-0.430005383358287,-0.428044184869068),.UNSPECIFIED.);
#22=B_SPLINE_CURVE_WITH_KNOTS('',3,(#1882,#1883,#1884,#1885,#1886,#1887,
#1888,#1889,#1890,#1891,#1892,#1893,#1894,#1895),.UNSPECIFIED.,.F.,.F.,
(4,2,2,2,2,2,4),(-0.385554905653918,-0.328757733866848,-0.26355402983135,
-0.176724163227346,-0.0905231600708681,0.,0.000901585896642016),
 .UNSPECIFIED.);
#23=B_SPLINE_CURVE_WITH_KNOTS('',3,(#1926,#1927,#1928,#1929,#1930,#1931,
#1932,#1933,#1934,#1935,#1936,#1937,#1938,#1939,#1940,#1941),
 .UNSPECIFIED.,.F.,.F.,(4,2,2,2,2,2,2,4),(-0.899460243563556,-0.89836039407585,
-0.789852319348789,-0.686359304651303,-0.579431539763496,-0.499373385496454,
-0.430005382828479,-0.428044184340386),.UNSPECIFIED.);
#24=B_SPLINE_CURVE_WITH_KNOTS('',3,(#1942,#1943,#1944,#1945,#1946,#1947,
#1948,#1949,#1950,#1951,#1952,#1953,#1954,#1955),.UNSPECIFIED.,.F.,.F.,
(4,2,2,2,2,2,4),(-0.385554905651471,-0.328757733864698,-0.263554029829516,
-0.176724163225924,-0.0905231600700726,0.,0.000901585895990976),
 .UNSPECIFIED.);
#25=B_SPLINE_CURVE_WITH_KNOTS('',3,(#1960,#1961,#1962,#1963,#1964,#1965,
#1966,#1967,#1968,#1969,#1970,#1971,#1972,#1973),.UNSPECIFIED.,.F.,.F.,
(4,2,2,2,2,2,4),(-0.385554905654293,-0.328757733867132,-0.263554029831512,
-0.176724163227381,-0.0905231600707729,0.,0.000901585896278031),
 .UNSPECIFIED.);
#26=B_SPLINE_CURVE_WITH_KNOTS('',3,(#1980,#1981,#1982,#1983,#1984,#1985,
#1986,#1987,#1988,#1989,#1990,#1991,#1992,#1993),.UNSPECIFIED.,.F.,.F.,
(4,2,2,2,2,2,4),(0.,0.056252688576384,0.120831320605604,0.206828797091186,
0.292203438696609,0.38185880307781,0.382751745966798),.UNSPECIFIED.);
#27=FACE_BOUND('',#220,.T.);
#28=FACE_BOUND('',#223,.T.);
#29=FACE_BOUND('',#226,.T.);
#30=FACE_BOUND('',#229,.T.);
#31=FACE_BOUND('',#232,.T.);
#32=FACE_BOUND('',#239,.T.);
#33=FACE_BOUND('',#246,.T.);
#34=FACE_BOUND('',#247,.T.);
#35=FACE_BOUND('',#248,.T.);
#36=FACE_BOUND('',#249,.T.);
#37=FACE_BOUND('',#250,.T.);
#38=FACE_BOUND('',#271,.T.);
#39=FACE_BOUND('',#272,.T.);
#40=FACE_BOUND('',#273,.T.);
#41=FACE_BOUND('',#274,.T.);
#42=FACE_BOUND('',#275,.T.);
#43=FACE_BOUND('',#278,.T.);
#44=FACE_BOUND('',#285,.T.);
#45=FACE_BOUND('',#286,.T.);
#46=FACE_BOUND('',#287,.T.);
#47=FACE_BOUND('',#288,.T.);
#48=FACE_BOUND('',#289,.T.);
#49=CIRCLE('',#1204,58.);
#50=CIRCLE('',#1205,2.);
#51=CIRCLE('',#1206,50.);
#52=CIRCLE('',#1207,2.);
#53=CIRCLE('',#1208,58.);
#54=CIRCLE('',#1209,2.);
#55=CIRCLE('',#1210,50.);
#56=CIRCLE('',#1211,2.);
#57=CIRCLE('',#1213,2.5);
#58=CIRCLE('',#1214,2.5);
#59=CIRCLE('',#1216,1.3);
#60=CIRCLE('',#1218,2.5);
#61=CIRCLE('',#1219,2.5);
#62=CIRCLE('',#1221,1.3);
#63=CIRCLE('',#1223,2.5);
#64=CIRCLE('',#1224,2.5);
#65=CIRCLE('',#1226,1.3);
#66=CIRCLE('',#1228,2.5);
#67=CIRCLE('',#1229,2.5);
#68=CIRCLE('',#1231,1.3);
#69=CIRCLE('',#1233,2.);
#70=CIRCLE('',#1235,60.);
#71=CIRCLE('',#1236,58.);
#72=CIRCLE('',#1238,60.);
#73=CIRCLE('',#1240,2.);
#74=CIRCLE('',#1243,60.);
#75=CIRCLE('',#1244,60.);
#76=CIRCLE('',#1245,60.);
#77=CIRCLE('',#1246,60.);
#78=CIRCLE('',#1247,60.);
#79=CIRCLE('',#1248,60.);
#80=CIRCLE('',#1251,2.);
#81=CIRCLE('',#1253,2.);
#82=CIRCLE('',#1255,58.);
#83=CIRCLE('',#1258,50.);
#84=CIRCLE('',#1259,1.3);
#85=CIRCLE('',#1260,1.3);
#86=CIRCLE('',#1261,4.);
#87=CIRCLE('',#1262,1.3);
#88=CIRCLE('',#1263,1.3);
#89=CIRCLE('',#1265,3.1);
#90=CIRCLE('',#1266,3.1);
#91=CIRCLE('',#1269,3.1);
#92=CIRCLE('',#1270,3.1);
#93=CIRCLE('',#1273,3.1);
#94=CIRCLE('',#1274,3.1);
#95=CIRCLE('',#1277,3.1);
#96=CIRCLE('',#1278,3.1);
#97=CIRCLE('',#1287,50.);
#98=CIRCLE('',#1288,50.);
#99=CIRCLE('',#1289,50.);
#100=CIRCLE('',#1290,50.);
#101=CIRCLE('',#1297,50.);
#102=CIRCLE('',#1300,4.);
#103=PLANE('',#1197);
#104=PLANE('',#1198);
#105=PLANE('',#1199);
#106=PLANE('',#1200);
#107=PLANE('',#1201);
#108=PLANE('',#1202);
#109=PLANE('',#1203);
#110=PLANE('',#1215);
#111=PLANE('',#1220);
#112=PLANE('',#1225);
#113=PLANE('',#1230);
#114=PLANE('',#1241);
#115=PLANE('',#1256);
#116=PLANE('',#1257);
#117=PLANE('',#1267);
#118=PLANE('',#1271);
#119=PLANE('',#1275);
#120=PLANE('',#1279);
#121=PLANE('',#1280);
#122=PLANE('',#1281);
#123=PLANE('',#1282);
#124=PLANE('',#1283);
#125=PLANE('',#1284);
#126=PLANE('',#1285);
#127=PLANE('',#1291);
#128=PLANE('',#1292);
#129=PLANE('',#1293);
#130=PLANE('',#1294);
#131=PLANE('',#1295);
#132=PLANE('',#1298);
#133=PLANE('',#1305);
#134=FACE_OUTER_BOUND('',#201,.T.);
#135=FACE_OUTER_BOUND('',#202,.T.);
#136=FACE_OUTER_BOUND('',#203,.T.);
#137=FACE_OUTER_BOUND('',#204,.T.);
#138=FACE_OUTER_BOUND('',#205,.T.);
#139=FACE_OUTER_BOUND('',#206,.T.);
#140=FACE_OUTER_BOUND('',#207,.T.);
#141=FACE_OUTER_BOUND('',#208,.T.);
#142=FACE_OUTER_BOUND('',#209,.T.);
#143=FACE_OUTER_BOUND('',#210,.T.);
#144=FACE_OUTER_BOUND('',#211,.T.);
#145=FACE_OUTER_BOUND('',#212,.T.);
#146=FACE_OUTER_BOUND('',#213,.T.);
#147=FACE_OUTER_BOUND('',#214,.T.);
#148=FACE_OUTER_BOUND('',#215,.T.);
#149=FACE_OUTER_BOUND('',#216,.T.);
#150=FACE_OUTER_BOUND('',#217,.T.);
#151=FACE_OUTER_BOUND('',#218,.T.);
#152=FACE_OUTER_BOUND('',#219,.T.);
#153=FACE_OUTER_BOUND('',#221,.T.);
#154=FACE_OUTER_BOUND('',#222,.T.);
#155=FACE_OUTER_BOUND('',#224,.T.);
#156=FACE_OUTER_BOUND('',#225,.T.);
#157=FACE_OUTER_BOUND('',#227,.T.);
#158=FACE_OUTER_BOUND('',#228,.T.);
#159=FACE_OUTER_BOUND('',#230,.T.);
#160=FACE_OUTER_BOUND('',#231,.T.);
#161=FACE_OUTER_BOUND('',#233,.T.);
#162=FACE_OUTER_BOUND('',#234,.T.);
#163=FACE_OUTER_BOUND('',#235,.T.);
#164=FACE_OUTER_BOUND('',#236,.T.);
#165=FACE_OUTER_BOUND('',#237,.T.);
#166=FACE_OUTER_BOUND('',#238,.T.);
#167=FACE_OUTER_BOUND('',#240,.T.);
#168=FACE_OUTER_BOUND('',#241,.T.);
#169=FACE_OUTER_BOUND('',#242,.T.);
#170=FACE_OUTER_BOUND('',#243,.T.);
#171=FACE_OUTER_BOUND('',#244,.T.);
#172=FACE_OUTER_BOUND('',#245,.T.);
#173=FACE_OUTER_BOUND('',#251,.T.);
#174=FACE_OUTER_BOUND('',#252,.T.);
#175=FACE_OUTER_BOUND('',#253,.T.);
#176=FACE_OUTER_BOUND('',#254,.T.);
#177=FACE_OUTER_BOUND('',#255,.T.);
#178=FACE_OUTER_BOUND('',#256,.T.);
#179=FACE_OUTER_BOUND('',#257,.T.);
#180=FACE_OUTER_BOUND('',#258,.T.);
#181=FACE_OUTER_BOUND('',#259,.T.);
#182=FACE_OUTER_BOUND('',#260,.T.);
#183=FACE_OUTER_BOUND('',#261,.T.);
#184=FACE_OUTER_BOUND('',#262,.T.);
#185=FACE_OUTER_BOUND('',#263,.T.);
#186=FACE_OUTER_BOUND('',#264,.T.);
#187=FACE_OUTER_BOUND('',#265,.T.);
#188=FACE_OUTER_BOUND('',#266,.T.);
#189=FACE_OUTER_BOUND('',#267,.T.);
#190=FACE_OUTER_BOUND('',#268,.T.);
#191=FACE_OUTER_BOUND('',#269,.T.);
#192=FACE_OUTER_BOUND('',#270,.T.);
#193=FACE_OUTER_BOUND('',#276,.T.);
#194=FACE_OUTER_BOUND('',#277,.T.);
#195=FACE_OUTER_BOUND('',#279,.T.);
#196=FACE_OUTER_BOUND('',#280,.T.);
#197=FACE_OUTER_BOUND('',#281,.T.);
#198=FACE_OUTER_BOUND('',#282,.T.);
#199=FACE_OUTER_BOUND('',#283,.T.);
#200=FACE_OUTER_BOUND('',#284,.T.);
#201=EDGE_LOOP('',(#733,#734,#735,#736));
#202=EDGE_LOOP('',(#737,#738,#739,#740));
#203=EDGE_LOOP('',(#741,#742,#743,#744));
#204=EDGE_LOOP('',(#745,#746,#747,#748));
#205=EDGE_LOOP('',(#749,#750,#751,#752));
#206=EDGE_LOOP('',(#753,#754,#755,#756));
#207=EDGE_LOOP('',(#757,#758,#759,#760));
#208=EDGE_LOOP('',(#761,#762,#763,#764));
#209=EDGE_LOOP('',(#765,#766,#767,#768));
#210=EDGE_LOOP('',(#769,#770,#771,#772));
#211=EDGE_LOOP('',(#773,#774,#775,#776));
#212=EDGE_LOOP('',(#777,#778,#779,#780));
#213=EDGE_LOOP('',(#781,#782,#783,#784));
#214=EDGE_LOOP('',(#785,#786,#787,#788));
#215=EDGE_LOOP('',(#789,#790,#791,#792));
#216=EDGE_LOOP('',(#793,#794,#795,#796));
#217=EDGE_LOOP('',(#797,#798,#799,#800));
#218=EDGE_LOOP('',(#801,#802,#803,#804));
#219=EDGE_LOOP('',(#805,#806,#807,#808,#809,#810,#811,#812,#813,#814,#815,
#816));
#220=EDGE_LOOP('',(#817,#818,#819,#820,#821,#822,#823,#824,#825,#826,#827,
#828));
#221=EDGE_LOOP('',(#829,#830,#831,#832));
#222=EDGE_LOOP('',(#833));
#223=EDGE_LOOP('',(#834));
#224=EDGE_LOOP('',(#835,#836,#837,#838));
#225=EDGE_LOOP('',(#839));
#226=EDGE_LOOP('',(#840));
#227=EDGE_LOOP('',(#841,#842,#843,#844));
#228=EDGE_LOOP('',(#845));
#229=EDGE_LOOP('',(#846));
#230=EDGE_LOOP('',(#847,#848,#849,#850));
#231=EDGE_LOOP('',(#851));
#232=EDGE_LOOP('',(#852));
#233=EDGE_LOOP('',(#853,#854,#855,#856,#857,#858));
#234=EDGE_LOOP('',(#859,#860,#861,#862));
#235=EDGE_LOOP('',(#863,#864,#865,#866));
#236=EDGE_LOOP('',(#867,#868,#869,#870,#871,#872));
#237=EDGE_LOOP('',(#873,#874,#875,#876));
#238=EDGE_LOOP('',(#877,#878,#879,#880,#881,#882,#883,#884,#885,#886,#887,
#888));
#239=EDGE_LOOP('',(#889,#890,#891,#892));
#240=EDGE_LOOP('',(#893,#894,#895,#896,#897));
#241=EDGE_LOOP('',(#898,#899,#900,#901,#902,#903));
#242=EDGE_LOOP('',(#904,#905,#906,#907,#908,#909));
#243=EDGE_LOOP('',(#910,#911,#912,#913,#914));
#244=EDGE_LOOP('',(#915,#916,#917,#918));
#245=EDGE_LOOP('',(#919));
#246=EDGE_LOOP('',(#920));
#247=EDGE_LOOP('',(#921));
#248=EDGE_LOOP('',(#922));
#249=EDGE_LOOP('',(#923));
#250=EDGE_LOOP('',(#924));
#251=EDGE_LOOP('',(#925,#926,#927,#928));
#252=EDGE_LOOP('',(#929));
#253=EDGE_LOOP('',(#930,#931,#932,#933));
#254=EDGE_LOOP('',(#934));
#255=EDGE_LOOP('',(#935,#936,#937,#938));
#256=EDGE_LOOP('',(#939));
#257=EDGE_LOOP('',(#940,#941,#942,#943));
#258=EDGE_LOOP('',(#944));
#259=EDGE_LOOP('',(#945,#946,#947,#948));
#260=EDGE_LOOP('',(#949,#950,#951,#952));
#261=EDGE_LOOP('',(#953,#954,#955,#956));
#262=EDGE_LOOP('',(#957,#958,#959,#960));
#263=EDGE_LOOP('',(#961,#962,#963,#964));
#264=EDGE_LOOP('',(#965,#966,#967,#968));
#265=EDGE_LOOP('',(#969,#970,#971,#972,#973,#974,#975,#976,#977,#978,#979,
#980));
#266=EDGE_LOOP('',(#981,#982,#983,#984));
#267=EDGE_LOOP('',(#985,#986,#987,#988,#989,#990,#991));
#268=EDGE_LOOP('',(#992,#993,#994,#995,#996,#997));
#269=EDGE_LOOP('',(#998,#999,#1000,#1001));
#270=EDGE_LOOP('',(#1002));
#271=EDGE_LOOP('',(#1003));
#272=EDGE_LOOP('',(#1004));
#273=EDGE_LOOP('',(#1005));
#274=EDGE_LOOP('',(#1006));
#275=EDGE_LOOP('',(#1007));
#276=EDGE_LOOP('',(#1008,#1009,#1010,#1011));
#277=EDGE_LOOP('',(#1012));
#278=EDGE_LOOP('',(#1013));
#279=EDGE_LOOP('',(#1014,#1015,#1016,#1017));
#280=EDGE_LOOP('',(#1018,#1019,#1020,#1021));
#281=EDGE_LOOP('',(#1022,#1023,#1024,#1025));
#282=EDGE_LOOP('',(#1026,#1027,#1028,#1029));
#283=EDGE_LOOP('',(#1030,#1031,#1032,#1033));
#284=EDGE_LOOP('',(#1034,#1035,#1036,#1037,#1038,#1039,#1040,#1041,#1042,
#1043,#1044,#1045));
#285=EDGE_LOOP('',(#1046));
#286=EDGE_LOOP('',(#1047));
#287=EDGE_LOOP('',(#1048));
#288=EDGE_LOOP('',(#1049));
#289=EDGE_LOOP('',(#1050));
#290=ELLIPSE('',#1174,2.12132034355964,1.5);
#291=ELLIPSE('',#1175,2.12132034355964,1.5);
#292=ELLIPSE('',#1177,2.12132034355964,1.5);
#293=ELLIPSE('',#1179,2.12132034355964,1.5);
#294=ELLIPSE('',#1181,2.12132034355964,1.5);
#295=ELLIPSE('',#1183,2.12132034355965,1.5);
#296=ELLIPSE('',#1185,2.12132034355963,1.5);
#297=ELLIPSE('',#1187,2.12132034355965,1.5);
#298=ELLIPSE('',#1189,2.12132034355964,1.5);
#299=ELLIPSE('',#1191,2.12132034355964,1.5);
#300=ELLIPSE('',#1193,2.12132034355965,1.5);
#301=ELLIPSE('',#1195,2.12132034355964,1.5);
#302=LINE('',#1663,#387);
#303=LINE('',#1667,#388);
#304=LINE('',#1671,#389);
#305=LINE('',#1674,#390);
#306=LINE('',#1677,#391);
#307=LINE('',#1680,#392);
#308=LINE('',#1683,#393);
#309=LINE('',#1686,#394);
#310=LINE('',#1689,#395);
#311=LINE('',#1692,#396);
#312=LINE('',#1695,#397);
#313=LINE('',#1698,#398);
#314=LINE('',#1701,#399);
#315=LINE('',#1704,#400);
#316=LINE('',#1707,#401);
#317=LINE('',#1709,#402);
#318=LINE('',#1713,#403);
#319=LINE('',#1715,#404);
#320=LINE('',#1719,#405);
#321=LINE('',#1721,#406);
#322=LINE('',#1725,#407);
#323=LINE('',#1727,#408);
#324=LINE('',#1730,#409);
#325=LINE('',#1731,#410);
#326=LINE('',#1734,#411);
#327=LINE('',#1736,#412);
#328=LINE('',#1737,#413);
#329=LINE('',#1740,#414);
#330=LINE('',#1741,#415);
#331=LINE('',#1744,#416);
#332=LINE('',#1745,#417);
#333=LINE('',#1748,#418);
#334=LINE('',#1749,#419);
#335=LINE('',#1752,#420);
#336=LINE('',#1753,#421);
#337=LINE('',#1756,#422);
#338=LINE('',#1757,#423);
#339=LINE('',#1765,#424);
#340=LINE('',#1769,#425);
#341=LINE('',#1777,#426);
#342=LINE('',#1781,#427);
#343=LINE('',#1787,#428);
#344=LINE('',#1796,#429);
#345=LINE('',#1805,#430);
#346=LINE('',#1814,#431);
#347=LINE('',#1822,#432);
#348=LINE('',#1842,#433);
#349=LINE('',#1898,#434);
#350=LINE('',#1900,#435);
#351=LINE('',#1904,#436);
#352=LINE('',#1905,#437);
#353=LINE('',#1910,#438);
#354=LINE('',#1914,#439);
#355=LINE('',#1918,#440);
#356=LINE('',#1923,#441);
#357=LINE('',#1958,#442);
#358=LINE('',#1977,#443);
#359=LINE('',#1998,#444);
#360=LINE('',#1999,#445);
#361=LINE('',#2017,#446);
#362=LINE('',#2024,#447);
#363=LINE('',#2031,#448);
#364=LINE('',#2038,#449);
#365=LINE('',#2043,#450);
#366=LINE('',#2045,#451);
#367=LINE('',#2046,#452);
#368=LINE('',#2049,#453);
#369=LINE('',#2050,#454);
#370=LINE('',#2053,#455);
#371=LINE('',#2054,#456);
#372=LINE('',#2057,#457);
#373=LINE('',#2058,#458);
#374=LINE('',#2060,#459);
#375=LINE('',#2062,#460);
#376=LINE('',#2067,#461);
#377=LINE('',#2070,#462);
#378=LINE('',#2072,#463);
#379=LINE('',#2076,#464);
#380=LINE('',#2079,#465);
#381=LINE('',#2085,#466);
#382=LINE('',#2089,#467);
#383=LINE('',#2092,#468);
#384=LINE('',#2094,#469);
#385=LINE('',#2096,#470);
#386=LINE('',#2098,#471);
#387=VECTOR('',#1310,10.);
#388=VECTOR('',#1313,10.);
#389=VECTOR('',#1318,10.);
#390=VECTOR('',#1321,10.);
#391=VECTOR('',#1324,10.);
#392=VECTOR('',#1327,10.);
#393=VECTOR('',#1330,10.);
#394=VECTOR('',#1333,10.);
#395=VECTOR('',#1336,10.);
#396=VECTOR('',#1339,10.);
#397=VECTOR('',#1342,10.);
#398=VECTOR('',#1345,10.);
#399=VECTOR('',#1348,10.);
#400=VECTOR('',#1351,10.);
#401=VECTOR('',#1354,10.);
#402=VECTOR('',#1355,10.);
#403=VECTOR('',#1360,10.);
#404=VECTOR('',#1361,10.);
#405=VECTOR('',#1366,10.);
#406=VECTOR('',#1367,10.);
#407=VECTOR('',#1372,10.);
#408=VECTOR('',#1373,10.);
#409=VECTOR('',#1378,10.);
#410=VECTOR('',#1379,10.);
#411=VECTOR('',#1382,10.);
#412=VECTOR('',#1383,10.);
#413=VECTOR('',#1384,10.);
#414=VECTOR('',#1387,10.);
#415=VECTOR('',#1388,10.);
#416=VECTOR('',#1391,10.);
#417=VECTOR('',#1392,10.);
#418=VECTOR('',#1395,10.);
#419=VECTOR('',#1396,10.);
#420=VECTOR('',#1399,10.);
#421=VECTOR('',#1400,10.);
#422=VECTOR('',#1403,10.);
#423=VECTOR('',#1404,10.);
#424=VECTOR('',#1411,10.);
#425=VECTOR('',#1414,10.);
#426=VECTOR('',#1421,10.);
#427=VECTOR('',#1424,10.);
#428=VECTOR('',#1431,2.5);
#429=VECTOR('',#1442,2.5);
#430=VECTOR('',#1453,2.5);
#431=VECTOR('',#1464,2.5);
#432=VECTOR('',#1473,10.);
#433=VECTOR('',#1476,10.);
#434=VECTOR('',#1489,10.);
#435=VECTOR('',#1490,10.);
#436=VECTOR('',#1495,10.);
#437=VECTOR('',#1496,10.);
#438=VECTOR('',#1501,60.);
#439=VECTOR('',#1504,10.);
#440=VECTOR('',#1507,60.);
#441=VECTOR('',#1512,10.);
#442=VECTOR('',#1519,10.);
#443=VECTOR('',#1524,10.);
#444=VECTOR('',#1533,10.);
#445=VECTOR('',#1534,10.);
#446=VECTOR('',#1553,3.1);
#447=VECTOR('',#1562,3.1);
#448=VECTOR('',#1571,3.1);
#449=VECTOR('',#1580,3.1);
#450=VECTOR('',#1587,10.);
#451=VECTOR('',#1588,10.);
#452=VECTOR('',#1589,10.);
#453=VECTOR('',#1592,10.);
#454=VECTOR('',#1593,10.);
#455=VECTOR('',#1596,10.);
#456=VECTOR('',#1597,10.);
#457=VECTOR('',#1600,10.);
#458=VECTOR('',#1601,10.);
#459=VECTOR('',#1604,10.);
#460=VECTOR('',#1607,10.);
#461=VECTOR('',#1612,50.);
#462=VECTOR('',#1615,10.);
#463=VECTOR('',#1616,10.);
#464=VECTOR('',#1623,10.);
#465=VECTOR('',#1628,10.);
#466=VECTOR('',#1637,50.);
#467=VECTOR('',#1642,4.);
#468=VECTOR('',#1647,1.3);
#469=VECTOR('',#1650,1.3);
#470=VECTOR('',#1653,1.3);
#471=VECTOR('',#1656,1.3);
#472=VERTEX_POINT('',#1661);
#473=VERTEX_POINT('',#1662);
#474=VERTEX_POINT('',#1664);
#475=VERTEX_POINT('',#1666);
#476=VERTEX_POINT('',#1670);
#477=VERTEX_POINT('',#1672);
#478=VERTEX_POINT('',#1676);
#479=VERTEX_POINT('',#1678);
#480=VERTEX_POINT('',#1682);
#481=VERTEX_POINT('',#1684);
#482=VERTEX_POINT('',#1688);
#483=VERTEX_POINT('',#1690);
#484=VERTEX_POINT('',#1694);
#485=VERTEX_POINT('',#1696);
#486=VERTEX_POINT('',#1700);
#487=VERTEX_POINT('',#1702);
#488=VERTEX_POINT('',#1706);
#489=VERTEX_POINT('',#1708);
#490=VERTEX_POINT('',#1712);
#491=VERTEX_POINT('',#1714);
#492=VERTEX_POINT('',#1718);
#493=VERTEX_POINT('',#1720);
#494=VERTEX_POINT('',#1724);
#495=VERTEX_POINT('',#1726);
#496=VERTEX_POINT('',#1733);
#497=VERTEX_POINT('',#1735);
#498=VERTEX_POINT('',#1739);
#499=VERTEX_POINT('',#1743);
#500=VERTEX_POINT('',#1747);
#501=VERTEX_POINT('',#1751);
#502=VERTEX_POINT('',#1755);
#503=VERTEX_POINT('',#1759);
#504=VERTEX_POINT('',#1760);
#505=VERTEX_POINT('',#1762);
#506=VERTEX_POINT('',#1764);
#507=VERTEX_POINT('',#1766);
#508=VERTEX_POINT('',#1768);
#509=VERTEX_POINT('',#1770);
#510=VERTEX_POINT('',#1772);
#511=VERTEX_POINT('',#1774);
#512=VERTEX_POINT('',#1776);
#513=VERTEX_POINT('',#1778);
#514=VERTEX_POINT('',#1780);
#515=VERTEX_POINT('',#1784);
#516=VERTEX_POINT('',#1786);
#517=VERTEX_POINT('',#1790);
#518=VERTEX_POINT('',#1793);
#519=VERTEX_POINT('',#1795);
#520=VERTEX_POINT('',#1799);
#521=VERTEX_POINT('',#1802);
#522=VERTEX_POINT('',#1804);
#523=VERTEX_POINT('',#1808);
#524=VERTEX_POINT('',#1811);
#525=VERTEX_POINT('',#1813);
#526=VERTEX_POINT('',#1817);
#527=VERTEX_POINT('',#1820);
#528=VERTEX_POINT('',#1821);
#529=VERTEX_POINT('',#1823);
#530=VERTEX_POINT('',#1840);
#531=VERTEX_POINT('',#1860);
#532=VERTEX_POINT('',#1862);
#533=VERTEX_POINT('',#1881);
#534=VERTEX_POINT('',#1899);
#535=VERTEX_POINT('',#1903);
#536=VERTEX_POINT('',#1907);
#537=VERTEX_POINT('',#1909);
#538=VERTEX_POINT('',#1911);
#539=VERTEX_POINT('',#1913);
#540=VERTEX_POINT('',#1915);
#541=VERTEX_POINT('',#1917);
#542=VERTEX_POINT('',#1920);
#543=VERTEX_POINT('',#1922);
#544=VERTEX_POINT('',#1957);
#545=VERTEX_POINT('',#1959);
#546=VERTEX_POINT('',#1976);
#547=VERTEX_POINT('',#1978);
#548=VERTEX_POINT('',#1997);
#549=VERTEX_POINT('',#2001);
#550=VERTEX_POINT('',#2003);
#551=VERTEX_POINT('',#2005);
#552=VERTEX_POINT('',#2007);
#553=VERTEX_POINT('',#2009);
#554=VERTEX_POINT('',#2011);
#555=VERTEX_POINT('',#2014);
#556=VERTEX_POINT('',#2016);
#557=VERTEX_POINT('',#2021);
#558=VERTEX_POINT('',#2023);
#559=VERTEX_POINT('',#2028);
#560=VERTEX_POINT('',#2030);
#561=VERTEX_POINT('',#2035);
#562=VERTEX_POINT('',#2037);
#563=VERTEX_POINT('',#2042);
#564=VERTEX_POINT('',#2044);
#565=VERTEX_POINT('',#2048);
#566=VERTEX_POINT('',#2052);
#567=VERTEX_POINT('',#2056);
#568=VERTEX_POINT('',#2064);
#569=VERTEX_POINT('',#2066);
#570=VERTEX_POINT('',#2068);
#571=VERTEX_POINT('',#2071);
#572=VERTEX_POINT('',#2083);
#573=VERTEX_POINT('',#2088);
#574=EDGE_CURVE('',#472,#473,#302,.T.);
#575=EDGE_CURVE('',#473,#474,#290,.T.);
#576=EDGE_CURVE('',#474,#475,#303,.T.);
#577=EDGE_CURVE('',#472,#475,#291,.T.);
#578=EDGE_CURVE('',#473,#476,#304,.T.);
#579=EDGE_CURVE('',#476,#477,#292,.T.);
#580=EDGE_CURVE('',#477,#474,#305,.T.);
#581=EDGE_CURVE('',#476,#478,#306,.T.);
#582=EDGE_CURVE('',#478,#479,#293,.T.);
#583=EDGE_CURVE('',#479,#477,#307,.T.);
#584=EDGE_CURVE('',#478,#480,#308,.T.);
#585=EDGE_CURVE('',#480,#481,#294,.T.);
#586=EDGE_CURVE('',#481,#479,#309,.T.);
#587=EDGE_CURVE('',#480,#482,#310,.T.);
#588=EDGE_CURVE('',#482,#483,#295,.T.);
#589=EDGE_CURVE('',#483,#481,#311,.T.);
#590=EDGE_CURVE('',#482,#484,#312,.T.);
#591=EDGE_CURVE('',#484,#485,#296,.T.);
#592=EDGE_CURVE('',#485,#483,#313,.T.);
#593=EDGE_CURVE('',#484,#486,#314,.T.);
#594=EDGE_CURVE('',#486,#487,#297,.T.);
#595=EDGE_CURVE('',#487,#485,#315,.T.);
#596=EDGE_CURVE('',#488,#487,#316,.T.);
#597=EDGE_CURVE('',#486,#489,#317,.T.);
#598=EDGE_CURVE('',#489,#488,#298,.T.);
#599=EDGE_CURVE('',#490,#488,#318,.T.);
#600=EDGE_CURVE('',#489,#491,#319,.T.);
#601=EDGE_CURVE('',#491,#490,#299,.T.);
#602=EDGE_CURVE('',#492,#490,#320,.T.);
#603=EDGE_CURVE('',#491,#493,#321,.T.);
#604=EDGE_CURVE('',#493,#492,#300,.T.);
#605=EDGE_CURVE('',#494,#492,#322,.T.);
#606=EDGE_CURVE('',#493,#495,#323,.T.);
#607=EDGE_CURVE('',#495,#494,#301,.T.);
#608=EDGE_CURVE('',#475,#494,#324,.T.);
#609=EDGE_CURVE('',#495,#472,#325,.T.);
#610=EDGE_CURVE('',#496,#488,#326,.T.);
#611=EDGE_CURVE('',#497,#496,#327,.T.);
#612=EDGE_CURVE('',#497,#487,#328,.T.);
#613=EDGE_CURVE('',#498,#490,#329,.T.);
#614=EDGE_CURVE('',#496,#498,#330,.T.);
#615=EDGE_CURVE('',#499,#492,#331,.T.);
#616=EDGE_CURVE('',#498,#499,#332,.T.);
#617=EDGE_CURVE('',#500,#494,#333,.T.);
#618=EDGE_CURVE('',#499,#500,#334,.T.);
#619=EDGE_CURVE('',#501,#475,#335,.T.);
#620=EDGE_CURVE('',#500,#501,#336,.T.);
#621=EDGE_CURVE('',#502,#474,#337,.T.);
#622=EDGE_CURVE('',#501,#502,#338,.T.);
#623=EDGE_CURVE('',#503,#504,#49,.T.);
#624=EDGE_CURVE('',#505,#503,#50,.T.);
#625=EDGE_CURVE('',#505,#506,#339,.T.);
#626=EDGE_CURVE('',#507,#506,#51,.T.);
#627=EDGE_CURVE('',#507,#508,#340,.T.);
#628=EDGE_CURVE('',#509,#508,#52,.T.);
#629=EDGE_CURVE('',#510,#509,#53,.T.);
#630=EDGE_CURVE('',#511,#510,#54,.T.);
#631=EDGE_CURVE('',#512,#511,#341,.T.);
#632=EDGE_CURVE('',#513,#512,#55,.T.);
#633=EDGE_CURVE('',#514,#513,#342,.T.);
#634=EDGE_CURVE('',#504,#514,#56,.T.);
#635=EDGE_CURVE('',#515,#515,#57,.T.);
#636=EDGE_CURVE('',#515,#516,#343,.T.);
#637=EDGE_CURVE('',#516,#516,#58,.T.);
#638=EDGE_CURVE('',#517,#517,#59,.T.);
#639=EDGE_CURVE('',#518,#518,#60,.T.);
#640=EDGE_CURVE('',#518,#519,#344,.T.);
#641=EDGE_CURVE('',#519,#519,#61,.T.);
#642=EDGE_CURVE('',#520,#520,#62,.T.);
#643=EDGE_CURVE('',#521,#521,#63,.T.);
#644=EDGE_CURVE('',#521,#522,#345,.T.);
#645=EDGE_CURVE('',#522,#522,#64,.T.);
#646=EDGE_CURVE('',#523,#523,#65,.T.);
#647=EDGE_CURVE('',#524,#524,#66,.T.);
#648=EDGE_CURVE('',#524,#525,#346,.T.);
#649=EDGE_CURVE('',#525,#525,#67,.T.);
#650=EDGE_CURVE('',#526,#526,#68,.T.);
#651=EDGE_CURVE('',#527,#528,#347,.T.);
#652=EDGE_CURVE('',#528,#529,#19,.T.);
#653=EDGE_CURVE('',#529,#530,#69,.T.);
#654=EDGE_CURVE('',#530,#505,#348,.T.);
#655=EDGE_CURVE('',#527,#503,#20,.T.);
#656=EDGE_CURVE('',#528,#531,#70,.T.);
#657=EDGE_CURVE('',#531,#532,#21,.T.);
#658=EDGE_CURVE('',#532,#529,#71,.T.);
#659=EDGE_CURVE('',#504,#533,#22,.T.);
#660=EDGE_CURVE('',#533,#527,#72,.T.);
#661=EDGE_CURVE('',#531,#533,#349,.T.);
#662=EDGE_CURVE('',#514,#534,#350,.T.);
#663=EDGE_CURVE('',#534,#532,#73,.T.);
#664=EDGE_CURVE('',#530,#535,#351,.T.);
#665=EDGE_CURVE('',#506,#535,#352,.T.);
#666=EDGE_CURVE('',#536,#536,#74,.T.);
#667=EDGE_CURVE('',#536,#537,#353,.T.);
#668=EDGE_CURVE('',#538,#537,#75,.T.);
#669=EDGE_CURVE('',#539,#538,#354,.T.);
#670=EDGE_CURVE('',#540,#539,#76,.T.);
#671=EDGE_CURVE('',#540,#541,#355,.T.);
#672=EDGE_CURVE('',#541,#541,#77,.T.);
#673=EDGE_CURVE('',#542,#540,#78,.T.);
#674=EDGE_CURVE('',#543,#542,#356,.T.);
#675=EDGE_CURVE('',#537,#543,#79,.T.);
#676=EDGE_CURVE('',#543,#510,#23,.T.);
#677=EDGE_CURVE('',#509,#538,#24,.T.);
#678=EDGE_CURVE('',#544,#511,#357,.T.);
#679=EDGE_CURVE('',#545,#542,#25,.T.);
#680=EDGE_CURVE('',#545,#544,#80,.T.);
#681=EDGE_CURVE('',#508,#546,#358,.T.);
#682=EDGE_CURVE('',#546,#547,#81,.T.);
#683=EDGE_CURVE('',#547,#539,#26,.T.);
#684=EDGE_CURVE('',#547,#545,#82,.T.);
#685=EDGE_CURVE('',#548,#507,#359,.T.);
#686=EDGE_CURVE('',#548,#546,#360,.T.);
#687=EDGE_CURVE('',#549,#549,#83,.T.);
#688=EDGE_CURVE('',#550,#550,#84,.T.);
#689=EDGE_CURVE('',#551,#551,#85,.T.);
#690=EDGE_CURVE('',#552,#552,#86,.T.);
#691=EDGE_CURVE('',#553,#553,#87,.T.);
#692=EDGE_CURVE('',#554,#554,#88,.T.);
#693=EDGE_CURVE('',#555,#555,#89,.T.);
#694=EDGE_CURVE('',#555,#556,#361,.T.);
#695=EDGE_CURVE('',#556,#556,#90,.T.);
#696=EDGE_CURVE('',#557,#557,#91,.T.);
#697=EDGE_CURVE('',#557,#558,#362,.T.);
#698=EDGE_CURVE('',#558,#558,#92,.T.);
#699=EDGE_CURVE('',#559,#559,#93,.T.);
#700=EDGE_CURVE('',#559,#560,#363,.T.);
#701=EDGE_CURVE('',#560,#560,#94,.T.);
#702=EDGE_CURVE('',#561,#561,#95,.T.);
#703=EDGE_CURVE('',#561,#562,#364,.T.);
#704=EDGE_CURVE('',#562,#562,#96,.T.);
#705=EDGE_CURVE('',#563,#479,#365,.T.);
#706=EDGE_CURVE('',#564,#563,#366,.T.);
#707=EDGE_CURVE('',#564,#477,#367,.T.);
#708=EDGE_CURVE('',#565,#481,#368,.T.);
#709=EDGE_CURVE('',#563,#565,#369,.T.);
#710=EDGE_CURVE('',#566,#483,#370,.T.);
#711=EDGE_CURVE('',#565,#566,#371,.T.);
#712=EDGE_CURVE('',#567,#485,#372,.T.);
#713=EDGE_CURVE('',#566,#567,#373,.T.);
#714=EDGE_CURVE('',#567,#497,#374,.T.);
#715=EDGE_CURVE('',#502,#564,#375,.T.);
#716=EDGE_CURVE('',#568,#568,#97,.T.);
#717=EDGE_CURVE('',#568,#569,#376,.T.);
#718=EDGE_CURVE('',#569,#570,#98,.T.);
#719=EDGE_CURVE('',#570,#513,#377,.T.);
#720=EDGE_CURVE('',#512,#571,#378,.T.);
#721=EDGE_CURVE('',#571,#548,#99,.T.);
#722=EDGE_CURVE('',#535,#569,#100,.T.);
#723=EDGE_CURVE('',#534,#570,#379,.T.);
#724=EDGE_CURVE('',#571,#544,#380,.T.);
#725=EDGE_CURVE('',#572,#572,#101,.T.);
#726=EDGE_CURVE('',#572,#549,#381,.T.);
#727=EDGE_CURVE('',#552,#573,#382,.T.);
#728=EDGE_CURVE('',#573,#573,#102,.T.);
#729=EDGE_CURVE('',#550,#517,#383,.T.);
#730=EDGE_CURVE('',#551,#523,#384,.T.);
#731=EDGE_CURVE('',#553,#526,#385,.T.);
#732=EDGE_CURVE('',#554,#520,#386,.T.);
#733=ORIENTED_EDGE('',*,*,#574,.T.);
#734=ORIENTED_EDGE('',*,*,#575,.T.);
#735=ORIENTED_EDGE('',*,*,#576,.T.);
#736=ORIENTED_EDGE('',*,*,#577,.F.);
#737=ORIENTED_EDGE('',*,*,#578,.T.);
#738=ORIENTED_EDGE('',*,*,#579,.T.);
#739=ORIENTED_EDGE('',*,*,#580,.T.);
#740=ORIENTED_EDGE('',*,*,#575,.F.);
#741=ORIENTED_EDGE('',*,*,#581,.T.);
#742=ORIENTED_EDGE('',*,*,#582,.T.);
#743=ORIENTED_EDGE('',*,*,#583,.T.);
#744=ORIENTED_EDGE('',*,*,#579,.F.);
#745=ORIENTED_EDGE('',*,*,#584,.T.);
#746=ORIENTED_EDGE('',*,*,#585,.T.);
#747=ORIENTED_EDGE('',*,*,#586,.T.);
#748=ORIENTED_EDGE('',*,*,#582,.F.);
#749=ORIENTED_EDGE('',*,*,#587,.T.);
#750=ORIENTED_EDGE('',*,*,#588,.T.);
#751=ORIENTED_EDGE('',*,*,#589,.T.);
#752=ORIENTED_EDGE('',*,*,#585,.F.);
#753=ORIENTED_EDGE('',*,*,#590,.T.);
#754=ORIENTED_EDGE('',*,*,#591,.T.);
#755=ORIENTED_EDGE('',*,*,#592,.T.);
#756=ORIENTED_EDGE('',*,*,#588,.F.);
#757=ORIENTED_EDGE('',*,*,#593,.T.);
#758=ORIENTED_EDGE('',*,*,#594,.T.);
#759=ORIENTED_EDGE('',*,*,#595,.T.);
#760=ORIENTED_EDGE('',*,*,#591,.F.);
#761=ORIENTED_EDGE('',*,*,#596,.T.);
#762=ORIENTED_EDGE('',*,*,#594,.F.);
#763=ORIENTED_EDGE('',*,*,#597,.T.);
#764=ORIENTED_EDGE('',*,*,#598,.T.);
#765=ORIENTED_EDGE('',*,*,#599,.T.);
#766=ORIENTED_EDGE('',*,*,#598,.F.);
#767=ORIENTED_EDGE('',*,*,#600,.T.);
#768=ORIENTED_EDGE('',*,*,#601,.T.);
#769=ORIENTED_EDGE('',*,*,#602,.T.);
#770=ORIENTED_EDGE('',*,*,#601,.F.);
#771=ORIENTED_EDGE('',*,*,#603,.T.);
#772=ORIENTED_EDGE('',*,*,#604,.T.);
#773=ORIENTED_EDGE('',*,*,#605,.T.);
#774=ORIENTED_EDGE('',*,*,#604,.F.);
#775=ORIENTED_EDGE('',*,*,#606,.T.);
#776=ORIENTED_EDGE('',*,*,#607,.T.);
#777=ORIENTED_EDGE('',*,*,#608,.T.);
#778=ORIENTED_EDGE('',*,*,#607,.F.);
#779=ORIENTED_EDGE('',*,*,#609,.T.);
#780=ORIENTED_EDGE('',*,*,#577,.T.);
#781=ORIENTED_EDGE('',*,*,#596,.F.);
#782=ORIENTED_EDGE('',*,*,#610,.F.);
#783=ORIENTED_EDGE('',*,*,#611,.F.);
#784=ORIENTED_EDGE('',*,*,#612,.T.);
#785=ORIENTED_EDGE('',*,*,#599,.F.);
#786=ORIENTED_EDGE('',*,*,#613,.F.);
#787=ORIENTED_EDGE('',*,*,#614,.F.);
#788=ORIENTED_EDGE('',*,*,#610,.T.);
#789=ORIENTED_EDGE('',*,*,#602,.F.);
#790=ORIENTED_EDGE('',*,*,#615,.F.);
#791=ORIENTED_EDGE('',*,*,#616,.F.);
#792=ORIENTED_EDGE('',*,*,#613,.T.);
#793=ORIENTED_EDGE('',*,*,#605,.F.);
#794=ORIENTED_EDGE('',*,*,#617,.F.);
#795=ORIENTED_EDGE('',*,*,#618,.F.);
#796=ORIENTED_EDGE('',*,*,#615,.T.);
#797=ORIENTED_EDGE('',*,*,#608,.F.);
#798=ORIENTED_EDGE('',*,*,#619,.F.);
#799=ORIENTED_EDGE('',*,*,#620,.F.);
#800=ORIENTED_EDGE('',*,*,#617,.T.);
#801=ORIENTED_EDGE('',*,*,#576,.F.);
#802=ORIENTED_EDGE('',*,*,#621,.F.);
#803=ORIENTED_EDGE('',*,*,#622,.F.);
#804=ORIENTED_EDGE('',*,*,#619,.T.);
#805=ORIENTED_EDGE('',*,*,#623,.F.);
#806=ORIENTED_EDGE('',*,*,#624,.F.);
#807=ORIENTED_EDGE('',*,*,#625,.T.);
#808=ORIENTED_EDGE('',*,*,#626,.F.);
#809=ORIENTED_EDGE('',*,*,#627,.T.);
#810=ORIENTED_EDGE('',*,*,#628,.F.);
#811=ORIENTED_EDGE('',*,*,#629,.F.);
#812=ORIENTED_EDGE('',*,*,#630,.F.);
#813=ORIENTED_EDGE('',*,*,#631,.F.);
#814=ORIENTED_EDGE('',*,*,#632,.F.);
#815=ORIENTED_EDGE('',*,*,#633,.F.);
#816=ORIENTED_EDGE('',*,*,#634,.F.);
#817=ORIENTED_EDGE('',*,*,#574,.F.);
#818=ORIENTED_EDGE('',*,*,#609,.F.);
#819=ORIENTED_EDGE('',*,*,#606,.F.);
#820=ORIENTED_EDGE('',*,*,#603,.F.);
#821=ORIENTED_EDGE('',*,*,#600,.F.);
#822=ORIENTED_EDGE('',*,*,#597,.F.);
#823=ORIENTED_EDGE('',*,*,#593,.F.);
#824=ORIENTED_EDGE('',*,*,#590,.F.);
#825=ORIENTED_EDGE('',*,*,#587,.F.);
#826=ORIENTED_EDGE('',*,*,#584,.F.);
#827=ORIENTED_EDGE('',*,*,#581,.F.);
#828=ORIENTED_EDGE('',*,*,#578,.F.);
#829=ORIENTED_EDGE('',*,*,#635,.F.);
#830=ORIENTED_EDGE('',*,*,#636,.T.);
#831=ORIENTED_EDGE('',*,*,#637,.T.);
#832=ORIENTED_EDGE('',*,*,#636,.F.);
#833=ORIENTED_EDGE('',*,*,#637,.F.);
#834=ORIENTED_EDGE('',*,*,#638,.F.);
#835=ORIENTED_EDGE('',*,*,#639,.F.);
#836=ORIENTED_EDGE('',*,*,#640,.T.);
#837=ORIENTED_EDGE('',*,*,#641,.T.);
#838=ORIENTED_EDGE('',*,*,#640,.F.);
#839=ORIENTED_EDGE('',*,*,#641,.F.);
#840=ORIENTED_EDGE('',*,*,#642,.F.);
#841=ORIENTED_EDGE('',*,*,#643,.F.);
#842=ORIENTED_EDGE('',*,*,#644,.T.);
#843=ORIENTED_EDGE('',*,*,#645,.T.);
#844=ORIENTED_EDGE('',*,*,#644,.F.);
#845=ORIENTED_EDGE('',*,*,#645,.F.);
#846=ORIENTED_EDGE('',*,*,#646,.F.);
#847=ORIENTED_EDGE('',*,*,#647,.F.);
#848=ORIENTED_EDGE('',*,*,#648,.T.);
#849=ORIENTED_EDGE('',*,*,#649,.T.);
#850=ORIENTED_EDGE('',*,*,#648,.F.);
#851=ORIENTED_EDGE('',*,*,#649,.F.);
#852=ORIENTED_EDGE('',*,*,#650,.F.);
#853=ORIENTED_EDGE('',*,*,#651,.T.);
#854=ORIENTED_EDGE('',*,*,#652,.T.);
#855=ORIENTED_EDGE('',*,*,#653,.T.);
#856=ORIENTED_EDGE('',*,*,#654,.T.);
#857=ORIENTED_EDGE('',*,*,#624,.T.);
#858=ORIENTED_EDGE('',*,*,#655,.F.);
#859=ORIENTED_EDGE('',*,*,#656,.T.);
#860=ORIENTED_EDGE('',*,*,#657,.T.);
#861=ORIENTED_EDGE('',*,*,#658,.T.);
#862=ORIENTED_EDGE('',*,*,#652,.F.);
#863=ORIENTED_EDGE('',*,*,#623,.T.);
#864=ORIENTED_EDGE('',*,*,#659,.T.);
#865=ORIENTED_EDGE('',*,*,#660,.T.);
#866=ORIENTED_EDGE('',*,*,#655,.T.);
#867=ORIENTED_EDGE('',*,*,#661,.T.);
#868=ORIENTED_EDGE('',*,*,#659,.F.);
#869=ORIENTED_EDGE('',*,*,#634,.T.);
#870=ORIENTED_EDGE('',*,*,#662,.T.);
#871=ORIENTED_EDGE('',*,*,#663,.T.);
#872=ORIENTED_EDGE('',*,*,#657,.F.);
#873=ORIENTED_EDGE('',*,*,#654,.F.);
#874=ORIENTED_EDGE('',*,*,#664,.T.);
#875=ORIENTED_EDGE('',*,*,#665,.F.);
#876=ORIENTED_EDGE('',*,*,#625,.F.);
#877=ORIENTED_EDGE('',*,*,#666,.F.);
#878=ORIENTED_EDGE('',*,*,#667,.T.);
#879=ORIENTED_EDGE('',*,*,#668,.F.);
#880=ORIENTED_EDGE('',*,*,#669,.F.);
#881=ORIENTED_EDGE('',*,*,#670,.F.);
#882=ORIENTED_EDGE('',*,*,#671,.T.);
#883=ORIENTED_EDGE('',*,*,#672,.F.);
#884=ORIENTED_EDGE('',*,*,#671,.F.);
#885=ORIENTED_EDGE('',*,*,#673,.F.);
#886=ORIENTED_EDGE('',*,*,#674,.F.);
#887=ORIENTED_EDGE('',*,*,#675,.F.);
#888=ORIENTED_EDGE('',*,*,#667,.F.);
#889=ORIENTED_EDGE('',*,*,#651,.F.);
#890=ORIENTED_EDGE('',*,*,#660,.F.);
#891=ORIENTED_EDGE('',*,*,#661,.F.);
#892=ORIENTED_EDGE('',*,*,#656,.F.);
#893=ORIENTED_EDGE('',*,*,#668,.T.);
#894=ORIENTED_EDGE('',*,*,#675,.T.);
#895=ORIENTED_EDGE('',*,*,#676,.T.);
#896=ORIENTED_EDGE('',*,*,#629,.T.);
#897=ORIENTED_EDGE('',*,*,#677,.T.);
#898=ORIENTED_EDGE('',*,*,#678,.T.);
#899=ORIENTED_EDGE('',*,*,#630,.T.);
#900=ORIENTED_EDGE('',*,*,#676,.F.);
#901=ORIENTED_EDGE('',*,*,#674,.T.);
#902=ORIENTED_EDGE('',*,*,#679,.F.);
#903=ORIENTED_EDGE('',*,*,#680,.T.);
#904=ORIENTED_EDGE('',*,*,#669,.T.);
#905=ORIENTED_EDGE('',*,*,#677,.F.);
#906=ORIENTED_EDGE('',*,*,#628,.T.);
#907=ORIENTED_EDGE('',*,*,#681,.T.);
#908=ORIENTED_EDGE('',*,*,#682,.T.);
#909=ORIENTED_EDGE('',*,*,#683,.T.);
#910=ORIENTED_EDGE('',*,*,#673,.T.);
#911=ORIENTED_EDGE('',*,*,#670,.T.);
#912=ORIENTED_EDGE('',*,*,#683,.F.);
#913=ORIENTED_EDGE('',*,*,#684,.T.);
#914=ORIENTED_EDGE('',*,*,#679,.T.);
#915=ORIENTED_EDGE('',*,*,#681,.F.);
#916=ORIENTED_EDGE('',*,*,#627,.F.);
#917=ORIENTED_EDGE('',*,*,#685,.F.);
#918=ORIENTED_EDGE('',*,*,#686,.T.);
#919=ORIENTED_EDGE('',*,*,#687,.F.);
#920=ORIENTED_EDGE('',*,*,#688,.T.);
#921=ORIENTED_EDGE('',*,*,#689,.T.);
#922=ORIENTED_EDGE('',*,*,#690,.T.);
#923=ORIENTED_EDGE('',*,*,#691,.T.);
#924=ORIENTED_EDGE('',*,*,#692,.T.);
#925=ORIENTED_EDGE('',*,*,#693,.F.);
#926=ORIENTED_EDGE('',*,*,#694,.T.);
#927=ORIENTED_EDGE('',*,*,#695,.T.);
#928=ORIENTED_EDGE('',*,*,#694,.F.);
#929=ORIENTED_EDGE('',*,*,#695,.F.);
#930=ORIENTED_EDGE('',*,*,#696,.F.);
#931=ORIENTED_EDGE('',*,*,#697,.T.);
#932=ORIENTED_EDGE('',*,*,#698,.T.);
#933=ORIENTED_EDGE('',*,*,#697,.F.);
#934=ORIENTED_EDGE('',*,*,#698,.F.);
#935=ORIENTED_EDGE('',*,*,#699,.F.);
#936=ORIENTED_EDGE('',*,*,#700,.T.);
#937=ORIENTED_EDGE('',*,*,#701,.T.);
#938=ORIENTED_EDGE('',*,*,#700,.F.);
#939=ORIENTED_EDGE('',*,*,#701,.F.);
#940=ORIENTED_EDGE('',*,*,#702,.F.);
#941=ORIENTED_EDGE('',*,*,#703,.T.);
#942=ORIENTED_EDGE('',*,*,#704,.T.);
#943=ORIENTED_EDGE('',*,*,#703,.F.);
#944=ORIENTED_EDGE('',*,*,#704,.F.);
#945=ORIENTED_EDGE('',*,*,#583,.F.);
#946=ORIENTED_EDGE('',*,*,#705,.F.);
#947=ORIENTED_EDGE('',*,*,#706,.F.);
#948=ORIENTED_EDGE('',*,*,#707,.T.);
#949=ORIENTED_EDGE('',*,*,#586,.F.);
#950=ORIENTED_EDGE('',*,*,#708,.F.);
#951=ORIENTED_EDGE('',*,*,#709,.F.);
#952=ORIENTED_EDGE('',*,*,#705,.T.);
#953=ORIENTED_EDGE('',*,*,#589,.F.);
#954=ORIENTED_EDGE('',*,*,#710,.F.);
#955=ORIENTED_EDGE('',*,*,#711,.F.);
#956=ORIENTED_EDGE('',*,*,#708,.T.);
#957=ORIENTED_EDGE('',*,*,#592,.F.);
#958=ORIENTED_EDGE('',*,*,#712,.F.);
#959=ORIENTED_EDGE('',*,*,#713,.F.);
#960=ORIENTED_EDGE('',*,*,#710,.T.);
#961=ORIENTED_EDGE('',*,*,#595,.F.);
#962=ORIENTED_EDGE('',*,*,#612,.F.);
#963=ORIENTED_EDGE('',*,*,#714,.F.);
#964=ORIENTED_EDGE('',*,*,#712,.T.);
#965=ORIENTED_EDGE('',*,*,#580,.F.);
#966=ORIENTED_EDGE('',*,*,#707,.F.);
#967=ORIENTED_EDGE('',*,*,#715,.F.);
#968=ORIENTED_EDGE('',*,*,#621,.T.);
#969=ORIENTED_EDGE('',*,*,#716,.F.);
#970=ORIENTED_EDGE('',*,*,#717,.T.);
#971=ORIENTED_EDGE('',*,*,#718,.T.);
#972=ORIENTED_EDGE('',*,*,#719,.T.);
#973=ORIENTED_EDGE('',*,*,#632,.T.);
#974=ORIENTED_EDGE('',*,*,#720,.T.);
#975=ORIENTED_EDGE('',*,*,#721,.T.);
#976=ORIENTED_EDGE('',*,*,#685,.T.);
#977=ORIENTED_EDGE('',*,*,#626,.T.);
#978=ORIENTED_EDGE('',*,*,#665,.T.);
#979=ORIENTED_EDGE('',*,*,#722,.T.);
#980=ORIENTED_EDGE('',*,*,#717,.F.);
#981=ORIENTED_EDGE('',*,*,#662,.F.);
#982=ORIENTED_EDGE('',*,*,#633,.T.);
#983=ORIENTED_EDGE('',*,*,#719,.F.);
#984=ORIENTED_EDGE('',*,*,#723,.F.);
#985=ORIENTED_EDGE('',*,*,#658,.F.);
#986=ORIENTED_EDGE('',*,*,#663,.F.);
#987=ORIENTED_EDGE('',*,*,#723,.T.);
#988=ORIENTED_EDGE('',*,*,#718,.F.);
#989=ORIENTED_EDGE('',*,*,#722,.F.);
#990=ORIENTED_EDGE('',*,*,#664,.F.);
#991=ORIENTED_EDGE('',*,*,#653,.F.);
#992=ORIENTED_EDGE('',*,*,#684,.F.);
#993=ORIENTED_EDGE('',*,*,#682,.F.);
#994=ORIENTED_EDGE('',*,*,#686,.F.);
#995=ORIENTED_EDGE('',*,*,#721,.F.);
#996=ORIENTED_EDGE('',*,*,#724,.T.);
#997=ORIENTED_EDGE('',*,*,#680,.F.);
#998=ORIENTED_EDGE('',*,*,#678,.F.);
#999=ORIENTED_EDGE('',*,*,#724,.F.);
#1000=ORIENTED_EDGE('',*,*,#720,.F.);
#1001=ORIENTED_EDGE('',*,*,#631,.T.);
#1002=ORIENTED_EDGE('',*,*,#672,.T.);
#1003=ORIENTED_EDGE('',*,*,#693,.T.);
#1004=ORIENTED_EDGE('',*,*,#696,.T.);
#1005=ORIENTED_EDGE('',*,*,#699,.T.);
#1006=ORIENTED_EDGE('',*,*,#702,.T.);
#1007=ORIENTED_EDGE('',*,*,#716,.T.);
#1008=ORIENTED_EDGE('',*,*,#725,.F.);
#1009=ORIENTED_EDGE('',*,*,#726,.T.);
#1010=ORIENTED_EDGE('',*,*,#687,.T.);
#1011=ORIENTED_EDGE('',*,*,#726,.F.);
#1012=ORIENTED_EDGE('',*,*,#666,.T.);
#1013=ORIENTED_EDGE('',*,*,#725,.T.);
#1014=ORIENTED_EDGE('',*,*,#690,.F.);
#1015=ORIENTED_EDGE('',*,*,#727,.T.);
#1016=ORIENTED_EDGE('',*,*,#728,.F.);
#1017=ORIENTED_EDGE('',*,*,#727,.F.);
#1018=ORIENTED_EDGE('',*,*,#688,.F.);
#1019=ORIENTED_EDGE('',*,*,#729,.T.);
#1020=ORIENTED_EDGE('',*,*,#638,.T.);
#1021=ORIENTED_EDGE('',*,*,#729,.F.);
#1022=ORIENTED_EDGE('',*,*,#689,.F.);
#1023=ORIENTED_EDGE('',*,*,#730,.T.);
#1024=ORIENTED_EDGE('',*,*,#646,.T.);
#1025=ORIENTED_EDGE('',*,*,#730,.F.);
#1026=ORIENTED_EDGE('',*,*,#691,.F.);
#1027=ORIENTED_EDGE('',*,*,#731,.T.);
#1028=ORIENTED_EDGE('',*,*,#650,.T.);
#1029=ORIENTED_EDGE('',*,*,#731,.F.);
#1030=ORIENTED_EDGE('',*,*,#692,.F.);
#1031=ORIENTED_EDGE('',*,*,#732,.T.);
#1032=ORIENTED_EDGE('',*,*,#642,.T.);
#1033=ORIENTED_EDGE('',*,*,#732,.F.);
#1034=ORIENTED_EDGE('',*,*,#706,.T.);
#1035=ORIENTED_EDGE('',*,*,#709,.T.);
#1036=ORIENTED_EDGE('',*,*,#711,.T.);
#1037=ORIENTED_EDGE('',*,*,#713,.T.);
#1038=ORIENTED_EDGE('',*,*,#714,.T.);
#1039=ORIENTED_EDGE('',*,*,#611,.T.);
#1040=ORIENTED_EDGE('',*,*,#614,.T.);
#1041=ORIENTED_EDGE('',*,*,#616,.T.);
#1042=ORIENTED_EDGE('',*,*,#618,.T.);
#1043=ORIENTED_EDGE('',*,*,#620,.T.);
#1044=ORIENTED_EDGE('',*,*,#622,.T.);
#1045=ORIENTED_EDGE('',*,*,#715,.T.);
#1046=ORIENTED_EDGE('',*,*,#635,.T.);
#1047=ORIENTED_EDGE('',*,*,#639,.T.);
#1048=ORIENTED_EDGE('',*,*,#643,.T.);
#1049=ORIENTED_EDGE('',*,*,#647,.T.);
#1050=ORIENTED_EDGE('',*,*,#728,.T.);
#1051=CYLINDRICAL_SURFACE('',#1173,1.5);
#1052=CYLINDRICAL_SURFACE('',#1176,1.5);
#1053=CYLINDRICAL_SURFACE('',#1178,1.5);
#1054=CYLINDRICAL_SURFACE('',#1180,1.5);
#1055=CYLINDRICAL_SURFACE('',#1182,1.5);
#1056=CYLINDRICAL_SURFACE('',#1184,1.5);
#1057=CYLINDRICAL_SURFACE('',#1186,1.5);
#1058=CYLINDRICAL_SURFACE('',#1188,1.5);
#1059=CYLINDRICAL_SURFACE('',#1190,1.5);
#1060=CYLINDRICAL_SURFACE('',#1192,1.5);
#1061=CYLINDRICAL_SURFACE('',#1194,1.5);
#1062=CYLINDRICAL_SURFACE('',#1196,1.5);
#1063=CYLINDRICAL_SURFACE('',#1212,2.5);
#1064=CYLINDRICAL_SURFACE('',#1217,2.5);
#1065=CYLINDRICAL_SURFACE('',#1222,2.5);
#1066=CYLINDRICAL_SURFACE('',#1227,2.5);
#1067=CYLINDRICAL_SURFACE('',#1232,2.);
#1068=CYLINDRICAL_SURFACE('',#1239,2.);
#1069=CYLINDRICAL_SURFACE('',#1242,60.);
#1070=CYLINDRICAL_SURFACE('',#1250,2.);
#1071=CYLINDRICAL_SURFACE('',#1252,2.);
#1072=CYLINDRICAL_SURFACE('',#1264,3.1);
#1073=CYLINDRICAL_SURFACE('',#1268,3.1);
#1074=CYLINDRICAL_SURFACE('',#1272,3.1);
#1075=CYLINDRICAL_SURFACE('',#1276,3.1);
#1076=CYLINDRICAL_SURFACE('',#1286,50.);
#1077=CYLINDRICAL_SURFACE('',#1296,50.);
#1078=CYLINDRICAL_SURFACE('',#1299,4.);
#1079=CYLINDRICAL_SURFACE('',#1301,1.3);
#1080=CYLINDRICAL_SURFACE('',#1302,1.3);
#1081=CYLINDRICAL_SURFACE('',#1303,1.3);
#1082=CYLINDRICAL_SURFACE('',#1304,1.3);
#1083=ADVANCED_FACE('',(#134),#1051,.T.);
#1084=ADVANCED_FACE('',(#135),#1052,.T.);
#1085=ADVANCED_FACE('',(#136),#1053,.T.);
#1086=ADVANCED_FACE('',(#137),#1054,.T.);
#1087=ADVANCED_FACE('',(#138),#1055,.T.);
#1088=ADVANCED_FACE('',(#139),#1056,.T.);
#1089=ADVANCED_FACE('',(#140),#1057,.T.);
#1090=ADVANCED_FACE('',(#141),#1058,.T.);
#1091=ADVANCED_FACE('',(#142),#1059,.T.);
#1092=ADVANCED_FACE('',(#143),#1060,.T.);
#1093=ADVANCED_FACE('',(#144),#1061,.T.);
#1094=ADVANCED_FACE('',(#145),#1062,.T.);
#1095=ADVANCED_FACE('',(#146),#103,.T.);
#1096=ADVANCED_FACE('',(#147),#104,.T.);
#1097=ADVANCED_FACE('',(#148),#105,.T.);
#1098=ADVANCED_FACE('',(#149),#106,.T.);
#1099=ADVANCED_FACE('',(#150),#107,.T.);
#1100=ADVANCED_FACE('',(#151),#108,.T.);
#1101=ADVANCED_FACE('',(#152,#27),#109,.F.);
#1102=ADVANCED_FACE('',(#153),#1063,.F.);
#1103=ADVANCED_FACE('',(#154,#28),#110,.T.);
#1104=ADVANCED_FACE('',(#155),#1064,.F.);
#1105=ADVANCED_FACE('',(#156,#29),#111,.T.);
#1106=ADVANCED_FACE('',(#157),#1065,.F.);
#1107=ADVANCED_FACE('',(#158,#30),#112,.T.);
#1108=ADVANCED_FACE('',(#159),#1066,.F.);
#1109=ADVANCED_FACE('',(#160,#31),#113,.T.);
#1110=ADVANCED_FACE('',(#161),#1067,.T.);
#1111=ADVANCED_FACE('',(#162),#15,.T.);
#1112=ADVANCED_FACE('',(#163),#16,.T.);
#1113=ADVANCED_FACE('',(#164),#1068,.T.);
#1114=ADVANCED_FACE('',(#165),#114,.F.);
#1115=ADVANCED_FACE('',(#166,#32),#1069,.T.);
#1116=ADVANCED_FACE('',(#167),#17,.T.);
#1117=ADVANCED_FACE('',(#168),#1070,.T.);
#1118=ADVANCED_FACE('',(#169),#1071,.T.);
#1119=ADVANCED_FACE('',(#170),#18,.T.);
#1120=ADVANCED_FACE('',(#171),#115,.F.);
#1121=ADVANCED_FACE('',(#172,#33,#34,#35,#36,#37),#116,.T.);
#1122=ADVANCED_FACE('',(#173),#1072,.F.);
#1123=ADVANCED_FACE('',(#174),#117,.T.);
#1124=ADVANCED_FACE('',(#175),#1073,.F.);
#1125=ADVANCED_FACE('',(#176),#118,.T.);
#1126=ADVANCED_FACE('',(#177),#1074,.F.);
#1127=ADVANCED_FACE('',(#178),#119,.T.);
#1128=ADVANCED_FACE('',(#179),#1075,.F.);
#1129=ADVANCED_FACE('',(#180),#120,.T.);
#1130=ADVANCED_FACE('',(#181),#121,.T.);
#1131=ADVANCED_FACE('',(#182),#122,.T.);
#1132=ADVANCED_FACE('',(#183),#123,.T.);
#1133=ADVANCED_FACE('',(#184),#124,.T.);
#1134=ADVANCED_FACE('',(#185),#125,.T.);
#1135=ADVANCED_FACE('',(#186),#126,.T.);
#1136=ADVANCED_FACE('',(#187),#1076,.F.);
#1137=ADVANCED_FACE('',(#188),#127,.F.);
#1138=ADVANCED_FACE('',(#189),#128,.F.);
#1139=ADVANCED_FACE('',(#190),#129,.F.);
#1140=ADVANCED_FACE('',(#191),#130,.F.);
#1141=ADVANCED_FACE('',(#192,#38,#39,#40,#41,#42),#131,.T.);
#1142=ADVANCED_FACE('',(#193),#1077,.F.);
#1143=ADVANCED_FACE('',(#194,#43),#132,.T.);
#1144=ADVANCED_FACE('',(#195),#1078,.F.);
#1145=ADVANCED_FACE('',(#196),#1079,.F.);
#1146=ADVANCED_FACE('',(#197),#1080,.F.);
#1147=ADVANCED_FACE('',(#198),#1081,.F.);
#1148=ADVANCED_FACE('',(#199),#1082,.F.);
#1149=ADVANCED_FACE('',(#200,#44,#45,#46,#47,#48),#133,.T.);
#1150=CLOSED_SHELL('',(#1083,#1084,#1085,#1086,#1087,#1088,#1089,#1090,
#1091,#1092,#1093,#1094,#1095,#1096,#1097,#1098,#1099,#1100,#1101,#1102,
#1103,#1104,#1105,#1106,#1107,#1108,#1109,#1110,#1111,#1112,#1113,#1114,
#1115,#1116,#1117,#1118,#1119,#1120,#1121,#1122,#1123,#1124,#1125,#1126,
#1127,#1128,#1129,#1130,#1131,#1132,#1133,#1134,#1135,#1136,#1137,#1138,
#1139,#1140,#1141,#1142,#1143,#1144,#1145,#1146,#1147,#1148,#1149));
#1151=DERIVED_UNIT_ELEMENT(#1154,1.);
#1152=DERIVED_UNIT_ELEMENT(#2105,-3.);
#1153=DIMENSIONAL_EXPONENTS(0.,1.,0.,0.,0.,0.,0.);
#1154=(
CONVERSION_BASED_UNIT('gram',#1156)
MASS_UNIT()
NAMED_UNIT(#1153)
);
#1155=(
MASS_UNIT()
NAMED_UNIT(*)
SI_UNIT(.KILO.,.GRAM.)
);
#1156=MASS_MEASURE_WITH_UNIT(MASS_MEASURE(0.001),#1155);
#1157=DERIVED_UNIT((#1151,#1152));
#1158=MEASURE_REPRESENTATION_ITEM('density measure',
POSITIVE_RATIO_MEASURE(0.94),#1157);
#1159=PROPERTY_DEFINITION_REPRESENTATION(#1164,#1161);
#1160=PROPERTY_DEFINITION_REPRESENTATION(#1165,#1162);
#1161=REPRESENTATION('material name',(#1163),#2102);
#1162=REPRESENTATION('density',(#1158),#2102);
#1163=DESCRIPTIVE_REPRESENTATION_ITEM('UHMW, Black','UHMW, Black');
#1164=PROPERTY_DEFINITION('material property','material name',#2112);
#1165=PROPERTY_DEFINITION('material property','density of part',#2112);
#1166=DATE_TIME_ROLE('creation_date');
#1167=APPLIED_DATE_AND_TIME_ASSIGNMENT(#1168,#1166,(#2112));
#1168=DATE_AND_TIME(#1169,#1170);
#1169=CALENDAR_DATE(2026,17,6);
#1170=LOCAL_TIME(0,0,0.,#1171);
#1171=COORDINATED_UNIVERSAL_TIME_OFFSET(0,0,.BEHIND.);
#1172=AXIS2_PLACEMENT_3D('',#1659,#1306,#1307);
#1173=AXIS2_PLACEMENT_3D('',#1660,#1308,#1309);
#1174=AXIS2_PLACEMENT_3D('',#1665,#1311,#1312);
#1175=AXIS2_PLACEMENT_3D('',#1668,#1314,#1315);
#1176=AXIS2_PLACEMENT_3D('',#1669,#1316,#1317);
#1177=AXIS2_PLACEMENT_3D('',#1673,#1319,#1320);
#1178=AXIS2_PLACEMENT_3D('',#1675,#1322,#1323);
#1179=AXIS2_PLACEMENT_3D('',#1679,#1325,#1326);
#1180=AXIS2_PLACEMENT_3D('',#1681,#1328,#1329);
#1181=AXIS2_PLACEMENT_3D('',#1685,#1331,#1332);
#1182=AXIS2_PLACEMENT_3D('',#1687,#1334,#1335);
#1183=AXIS2_PLACEMENT_3D('',#1691,#1337,#1338);
#1184=AXIS2_PLACEMENT_3D('',#1693,#1340,#1341);
#1185=AXIS2_PLACEMENT_3D('',#1697,#1343,#1344);
#1186=AXIS2_PLACEMENT_3D('',#1699,#1346,#1347);
#1187=AXIS2_PLACEMENT_3D('',#1703,#1349,#1350);
#1188=AXIS2_PLACEMENT_3D('',#1705,#1352,#1353);
#1189=AXIS2_PLACEMENT_3D('',#1710,#1356,#1357);
#1190=AXIS2_PLACEMENT_3D('',#1711,#1358,#1359);
#1191=AXIS2_PLACEMENT_3D('',#1716,#1362,#1363);
#1192=AXIS2_PLACEMENT_3D('',#1717,#1364,#1365);
#1193=AXIS2_PLACEMENT_3D('',#1722,#1368,#1369);
#1194=AXIS2_PLACEMENT_3D('',#1723,#1370,#1371);
#1195=AXIS2_PLACEMENT_3D('',#1728,#1374,#1375);
#1196=AXIS2_PLACEMENT_3D('',#1729,#1376,#1377);
#1197=AXIS2_PLACEMENT_3D('',#1732,#1380,#1381);
#1198=AXIS2_PLACEMENT_3D('',#1738,#1385,#1386);
#1199=AXIS2_PLACEMENT_3D('',#1742,#1389,#1390);
#1200=AXIS2_PLACEMENT_3D('',#1746,#1393,#1394);
#1201=AXIS2_PLACEMENT_3D('',#1750,#1397,#1398);
#1202=AXIS2_PLACEMENT_3D('',#1754,#1401,#1402);
#1203=AXIS2_PLACEMENT_3D('',#1758,#1405,#1406);
#1204=AXIS2_PLACEMENT_3D('',#1761,#1407,#1408);
#1205=AXIS2_PLACEMENT_3D('',#1763,#1409,#1410);
#1206=AXIS2_PLACEMENT_3D('',#1767,#1412,#1413);
#1207=AXIS2_PLACEMENT_3D('',#1771,#1415,#1416);
#1208=AXIS2_PLACEMENT_3D('',#1773,#1417,#1418);
#1209=AXIS2_PLACEMENT_3D('',#1775,#1419,#1420);
#1210=AXIS2_PLACEMENT_3D('',#1779,#1422,#1423);
#1211=AXIS2_PLACEMENT_3D('',#1782,#1425,#1426);
#1212=AXIS2_PLACEMENT_3D('',#1783,#1427,#1428);
#1213=AXIS2_PLACEMENT_3D('',#1785,#1429,#1430);
#1214=AXIS2_PLACEMENT_3D('',#1788,#1432,#1433);
#1215=AXIS2_PLACEMENT_3D('',#1789,#1434,#1435);
#1216=AXIS2_PLACEMENT_3D('',#1791,#1436,#1437);
#1217=AXIS2_PLACEMENT_3D('',#1792,#1438,#1439);
#1218=AXIS2_PLACEMENT_3D('',#1794,#1440,#1441);
#1219=AXIS2_PLACEMENT_3D('',#1797,#1443,#1444);
#1220=AXIS2_PLACEMENT_3D('',#1798,#1445,#1446);
#1221=AXIS2_PLACEMENT_3D('',#1800,#1447,#1448);
#1222=AXIS2_PLACEMENT_3D('',#1801,#1449,#1450);
#1223=AXIS2_PLACEMENT_3D('',#1803,#1451,#1452);
#1224=AXIS2_PLACEMENT_3D('',#1806,#1454,#1455);
#1225=AXIS2_PLACEMENT_3D('',#1807,#1456,#1457);
#1226=AXIS2_PLACEMENT_3D('',#1809,#1458,#1459);
#1227=AXIS2_PLACEMENT_3D('',#1810,#1460,#1461);
#1228=AXIS2_PLACEMENT_3D('',#1812,#1462,#1463);
#1229=AXIS2_PLACEMENT_3D('',#1815,#1465,#1466);
#1230=AXIS2_PLACEMENT_3D('',#1816,#1467,#1468);
#1231=AXIS2_PLACEMENT_3D('',#1818,#1469,#1470);
#1232=AXIS2_PLACEMENT_3D('',#1819,#1471,#1472);
#1233=AXIS2_PLACEMENT_3D('',#1841,#1474,#1475);
#1234=AXIS2_PLACEMENT_3D('',#1859,#1477,#1478);
#1235=AXIS2_PLACEMENT_3D('',#1861,#1479,#1480);
#1236=AXIS2_PLACEMENT_3D('',#1879,#1481,#1482);
#1237=AXIS2_PLACEMENT_3D('',#1880,#1483,#1484);
#1238=AXIS2_PLACEMENT_3D('',#1896,#1485,#1486);
#1239=AXIS2_PLACEMENT_3D('',#1897,#1487,#1488);
#1240=AXIS2_PLACEMENT_3D('',#1901,#1491,#1492);
#1241=AXIS2_PLACEMENT_3D('',#1902,#1493,#1494);
#1242=AXIS2_PLACEMENT_3D('',#1906,#1497,#1498);
#1243=AXIS2_PLACEMENT_3D('',#1908,#1499,#1500);
#1244=AXIS2_PLACEMENT_3D('',#1912,#1502,#1503);
#1245=AXIS2_PLACEMENT_3D('',#1916,#1505,#1506);
#1246=AXIS2_PLACEMENT_3D('',#1919,#1508,#1509);
#1247=AXIS2_PLACEMENT_3D('',#1921,#1510,#1511);
#1248=AXIS2_PLACEMENT_3D('',#1924,#1513,#1514);
#1249=AXIS2_PLACEMENT_3D('',#1925,#1515,#1516);
#1250=AXIS2_PLACEMENT_3D('',#1956,#1517,#1518);
#1251=AXIS2_PLACEMENT_3D('',#1974,#1520,#1521);
#1252=AXIS2_PLACEMENT_3D('',#1975,#1522,#1523);
#1253=AXIS2_PLACEMENT_3D('',#1979,#1525,#1526);
#1254=AXIS2_PLACEMENT_3D('',#1994,#1527,#1528);
#1255=AXIS2_PLACEMENT_3D('',#1995,#1529,#1530);
#1256=AXIS2_PLACEMENT_3D('',#1996,#1531,#1532);
#1257=AXIS2_PLACEMENT_3D('',#2000,#1535,#1536);
#1258=AXIS2_PLACEMENT_3D('',#2002,#1537,#1538);
#1259=AXIS2_PLACEMENT_3D('',#2004,#1539,#1540);
#1260=AXIS2_PLACEMENT_3D('',#2006,#1541,#1542);
#1261=AXIS2_PLACEMENT_3D('',#2008,#1543,#1544);
#1262=AXIS2_PLACEMENT_3D('',#2010,#1545,#1546);
#1263=AXIS2_PLACEMENT_3D('',#2012,#1547,#1548);
#1264=AXIS2_PLACEMENT_3D('',#2013,#1549,#1550);
#1265=AXIS2_PLACEMENT_3D('',#2015,#1551,#1552);
#1266=AXIS2_PLACEMENT_3D('',#2018,#1554,#1555);
#1267=AXIS2_PLACEMENT_3D('',#2019,#1556,#1557);
#1268=AXIS2_PLACEMENT_3D('',#2020,#1558,#1559);
#1269=AXIS2_PLACEMENT_3D('',#2022,#1560,#1561);
#1270=AXIS2_PLACEMENT_3D('',#2025,#1563,#1564);
#1271=AXIS2_PLACEMENT_3D('',#2026,#1565,#1566);
#1272=AXIS2_PLACEMENT_3D('',#2027,#1567,#1568);
#1273=AXIS2_PLACEMENT_3D('',#2029,#1569,#1570);
#1274=AXIS2_PLACEMENT_3D('',#2032,#1572,#1573);
#1275=AXIS2_PLACEMENT_3D('',#2033,#1574,#1575);
#1276=AXIS2_PLACEMENT_3D('',#2034,#1576,#1577);
#1277=AXIS2_PLACEMENT_3D('',#2036,#1578,#1579);
#1278=AXIS2_PLACEMENT_3D('',#2039,#1581,#1582);
#1279=AXIS2_PLACEMENT_3D('',#2040,#1583,#1584);
#1280=AXIS2_PLACEMENT_3D('',#2041,#1585,#1586);
#1281=AXIS2_PLACEMENT_3D('',#2047,#1590,#1591);
#1282=AXIS2_PLACEMENT_3D('',#2051,#1594,#1595);
#1283=AXIS2_PLACEMENT_3D('',#2055,#1598,#1599);
#1284=AXIS2_PLACEMENT_3D('',#2059,#1602,#1603);
#1285=AXIS2_PLACEMENT_3D('',#2061,#1605,#1606);
#1286=AXIS2_PLACEMENT_3D('',#2063,#1608,#1609);
#1287=AXIS2_PLACEMENT_3D('',#2065,#1610,#1611);
#1288=AXIS2_PLACEMENT_3D('',#2069,#1613,#1614);
#1289=AXIS2_PLACEMENT_3D('',#2073,#1617,#1618);
#1290=AXIS2_PLACEMENT_3D('',#2074,#1619,#1620);
#1291=AXIS2_PLACEMENT_3D('',#2075,#1621,#1622);
#1292=AXIS2_PLACEMENT_3D('',#2077,#1624,#1625);
#1293=AXIS2_PLACEMENT_3D('',#2078,#1626,#1627);
#1294=AXIS2_PLACEMENT_3D('',#2080,#1629,#1630);
#1295=AXIS2_PLACEMENT_3D('',#2081,#1631,#1632);
#1296=AXIS2_PLACEMENT_3D('',#2082,#1633,#1634);
#1297=AXIS2_PLACEMENT_3D('',#2084,#1635,#1636);
#1298=AXIS2_PLACEMENT_3D('',#2086,#1638,#1639);
#1299=AXIS2_PLACEMENT_3D('',#2087,#1640,#1641);
#1300=AXIS2_PLACEMENT_3D('',#2090,#1643,#1644);
#1301=AXIS2_PLACEMENT_3D('',#2091,#1645,#1646);
#1302=AXIS2_PLACEMENT_3D('',#2093,#1648,#1649);
#1303=AXIS2_PLACEMENT_3D('',#2095,#1651,#1652);
#1304=AXIS2_PLACEMENT_3D('',#2097,#1654,#1655);
#1305=AXIS2_PLACEMENT_3D('',#2099,#1657,#1658);
#1306=DIRECTION('axis',(0.,0.,1.));
#1307=DIRECTION('refdir',(1.,0.,0.));
#1308=DIRECTION('center_axis',(7.40148683083438E-17,-1.,-1.85037170770859E-16));
#1309=DIRECTION('ref_axis',(-0.707106781186546,0.,0.707106781186549));
#1310=DIRECTION('',(-7.40148683083438E-17,1.,1.85037170770859E-16));
#1311=DIRECTION('center_axis',(0.707106781186548,-0.707106781186548,-2.09345661157837E-15));
#1312=DIRECTION('ref_axis',(0.707106781186547,0.707106781186547,-1.83177453513107E-15));
#1313=DIRECTION('',(7.40148683083438E-17,-1.,-1.85037170770859E-16));
#1314=DIRECTION('center_axis',(0.707106781186548,-0.707106781186547,5.23364152894592E-16));
#1315=DIRECTION('ref_axis',(-0.707106781186547,-0.707106781186548,5.23364152894592E-16));
#1316=DIRECTION('center_axis',(1.,0.,0.));
#1317=DIRECTION('ref_axis',(0.,-0.707106781186546,0.707106781186549));
#1318=DIRECTION('',(-1.,0.,0.));
#1319=DIRECTION('center_axis',(0.707106781186548,0.707106781186548,2.09345661157837E-15));
#1320=DIRECTION('ref_axis',(-0.707106781186547,0.707106781186547,2.09345661157837E-15));
#1321=DIRECTION('',(1.,0.,0.));
#1322=DIRECTION('center_axis',(-1.48029736616688E-16,1.,1.85037170770859E-16));
#1323=DIRECTION('ref_axis',(0.707106781186548,-5.23364152894591E-16,0.707106781186547));
#1324=DIRECTION('',(1.48029736616688E-16,-1.,-1.85037170770859E-16));
#1325=DIRECTION('center_axis',(0.707106781186547,0.707106781186548,-2.09345661157836E-15));
#1326=DIRECTION('ref_axis',(0.707106781186548,-0.707106781186547,-2.35513868802566E-15));
#1327=DIRECTION('',(-1.48029736616688E-16,1.,1.85037170770859E-16));
#1328=DIRECTION('center_axis',(1.,0.,0.));
#1329=DIRECTION('ref_axis',(0.,-0.707106781186547,0.707106781186548));
#1330=DIRECTION('',(-1.,0.,0.));
#1331=DIRECTION('center_axis',(0.707106781186549,0.707106781186546,0.));
#1332=DIRECTION('ref_axis',(-0.707106781186546,0.707106781186549,0.));
#1333=DIRECTION('',(1.,0.,0.));
#1334=DIRECTION('center_axis',(0.,1.,1.85037170770859E-16));
#1335=DIRECTION('ref_axis',(0.707106781186543,-1.30841038223648E-16,0.707106781186552));
#1336=DIRECTION('',(0.,-1.,-1.85037170770859E-16));
#1337=DIRECTION('center_axis',(-0.707106781186549,0.707106781186546,0.));
#1338=DIRECTION('ref_axis',(-0.707106781186546,-0.707106781186549,-2.61682076447295E-16));
#1339=DIRECTION('',(0.,1.,1.85037170770859E-16));
#1340=DIRECTION('center_axis',(-1.,-6.93889390390723E-17,-1.28395329625816E-32));
#1341=DIRECTION('ref_axis',(0.,0.707106781186547,0.707106781186548));
#1342=DIRECTION('',(1.,6.93889390390723E-17,1.28395329625816E-32));
#1343=DIRECTION('center_axis',(-0.707106781186551,0.707106781186544,-2.09345661157837E-15));
#1344=DIRECTION('ref_axis',(0.707106781186544,0.707106781186551,-2.09345661157839E-15));
#1345=DIRECTION('',(-1.,-6.93889390390723E-17,-1.28395329625816E-32));
#1346=DIRECTION('center_axis',(-1.48029736616688E-16,1.,1.85037170770859E-16));
#1347=DIRECTION('ref_axis',(0.707106781186547,0.,0.707106781186548));
#1348=DIRECTION('',(1.48029736616688E-16,-1.,-1.85037170770859E-16));
#1349=DIRECTION('center_axis',(-0.707106781186551,0.707106781186544,0.));
#1350=DIRECTION('ref_axis',(-0.707106781186544,-0.707106781186551,-2.61682076447295E-16));
#1351=DIRECTION('',(-1.48029736616688E-16,1.,1.85037170770859E-16));
#1352=DIRECTION('center_axis',(-1.,1.26882631385732E-16,2.34780031315777E-32));
#1353=DIRECTION('ref_axis',(0.,0.707106781186548,0.707106781186547));
#1354=DIRECTION('',(-1.,1.26882631385732E-16,2.34780031315777E-32));
#1355=DIRECTION('',(1.,-1.26882631385732E-16,-2.34780031315777E-32));
#1356=DIRECTION('center_axis',(-0.707106781186549,-0.707106781186546,2.09345661157837E-15));
#1357=DIRECTION('ref_axis',(0.707106781186546,-0.707106781186549,2.09345661157838E-15));
#1358=DIRECTION('center_axis',(7.40148683083438E-17,-1.,-1.85037170770859E-16));
#1359=DIRECTION('ref_axis',(-0.707106781186548,-2.61682076447295E-16,0.707106781186548));
#1360=DIRECTION('',(7.40148683083438E-17,-1.,-1.85037170770859E-16));
#1361=DIRECTION('',(-7.40148683083438E-17,1.,1.85037170770859E-16));
#1362=DIRECTION('center_axis',(-0.707106781186547,-0.707106781186548,0.));
#1363=DIRECTION('ref_axis',(-0.707106781186548,0.707106781186547,2.61682076447296E-16));
#1364=DIRECTION('center_axis',(-1.,-2.08166817117217E-16,-3.85185988877447E-32));
#1365=DIRECTION('ref_axis',(0.,0.707106781186547,0.707106781186548));
#1366=DIRECTION('',(-1.,-2.08166817117217E-16,-3.85185988877447E-32));
#1367=DIRECTION('',(1.,2.08166817117217E-16,3.85185988877447E-32));
#1368=DIRECTION('center_axis',(-0.707106781186546,-0.707106781186549,5.23364152894592E-16));
#1369=DIRECTION('ref_axis',(0.707106781186549,-0.707106781186547,5.23364152894591E-16));
#1370=DIRECTION('center_axis',(0.,-1.,-1.85037170770859E-16));
#1371=DIRECTION('ref_axis',(-0.707106781186548,0.,0.707106781186547));
#1372=DIRECTION('',(0.,-1.,-1.85037170770859E-16));
#1373=DIRECTION('',(0.,1.,1.85037170770859E-16));
#1374=DIRECTION('center_axis',(0.707106781186547,-0.707106781186548,0.));
#1375=DIRECTION('ref_axis',(0.707106781186548,0.707106781186547,2.61682076447296E-16));
#1376=DIRECTION('center_axis',(1.,0.,0.));
#1377=DIRECTION('ref_axis',(0.,-0.707106781186547,0.707106781186548));
#1378=DIRECTION('',(1.,0.,0.));
#1379=DIRECTION('',(-1.,0.,0.));
#1380=DIRECTION('center_axis',(1.26882631385732E-16,1.,0.));
#1381=DIRECTION('ref_axis',(-1.,1.26882631385732E-16,0.));
#1382=DIRECTION('',(0.,0.,1.));
#1383=DIRECTION('',(1.,-1.26882631385732E-16,0.));
#1384=DIRECTION('',(0.,0.,1.));
#1385=DIRECTION('center_axis',(-1.,-7.40148683083438E-17,0.));
#1386=DIRECTION('ref_axis',(7.40148683083438E-17,-1.,0.));
#1387=DIRECTION('',(0.,0.,1.));
#1388=DIRECTION('',(-7.40148683083438E-17,1.,0.));
#1389=DIRECTION('center_axis',(-2.08166817117217E-16,1.,0.));
#1390=DIRECTION('ref_axis',(-1.,-2.08166817117217E-16,0.));
#1391=DIRECTION('',(0.,0.,1.));
#1392=DIRECTION('',(1.,2.08166817117217E-16,0.));
#1393=DIRECTION('center_axis',(-1.,0.,0.));
#1394=DIRECTION('ref_axis',(0.,-1.,0.));
#1395=DIRECTION('',(0.,0.,1.));
#1396=DIRECTION('',(0.,1.,0.));
#1397=DIRECTION('center_axis',(0.,-1.,0.));
#1398=DIRECTION('ref_axis',(1.,0.,0.));
#1399=DIRECTION('',(0.,0.,1.));
#1400=DIRECTION('',(-1.,0.,0.));
#1401=DIRECTION('center_axis',(-1.,-7.40148683083438E-17,0.));
#1402=DIRECTION('ref_axis',(7.40148683083438E-17,-1.,0.));
#1403=DIRECTION('',(0.,0.,1.));
#1404=DIRECTION('',(-7.40148683083438E-17,1.,0.));
#1405=DIRECTION('center_axis',(0.,1.85037170770859E-16,-1.));
#1406=DIRECTION('ref_axis',(0.,-1.,-1.85037170770859E-16));
#1407=DIRECTION('center_axis',(0.,1.85037170770859E-16,-1.));
#1408=DIRECTION('ref_axis',(1.,-9.79155028662464E-17,-1.81180076249762E-32));
#1409=DIRECTION('center_axis',(0.,-1.85037170770859E-16,1.));
#1410=DIRECTION('ref_axis',(0.754298029456115,-0.656532164298613,0.));
#1411=DIRECTION('',(-1.,0.,0.));
#1412=DIRECTION('center_axis',(0.,0.,-1.));
#1413=DIRECTION('ref_axis',(-1.,0.,0.));
#1414=DIRECTION('',(-1.,0.,0.));
#1415=DIRECTION('center_axis',(0.,-1.85037170770859E-16,1.));
#1416=DIRECTION('ref_axis',(-0.754298029456114,-0.656532164298614,0.));
#1417=DIRECTION('center_axis',(0.,1.85037170770859E-16,-1.));
#1418=DIRECTION('ref_axis',(-1.,-1.16296774222373E-16,-2.15192260718854E-32));
#1419=DIRECTION('center_axis',(0.,-1.85037170770859E-16,1.));
#1420=DIRECTION('ref_axis',(-0.754298029456115,0.656532164298613,5.63680443496744E-16));
#1421=DIRECTION('',(-1.,0.,0.));
#1422=DIRECTION('center_axis',(0.,0.,-1.));
#1423=DIRECTION('ref_axis',(-1.,0.,0.));
#1424=DIRECTION('',(-1.,0.,0.));
#1425=DIRECTION('center_axis',(0.,-1.85037170770859E-16,1.));
#1426=DIRECTION('ref_axis',(0.754298029456115,0.656532164298613,5.63680443496744E-16));
#1427=DIRECTION('center_axis',(0.,0.,-1.));
#1428=DIRECTION('ref_axis',(1.,0.,0.));
#1429=DIRECTION('center_axis',(0.,0.,-1.));
#1430=DIRECTION('ref_axis',(1.,0.,0.));
#1431=DIRECTION('',(0.,0.,-1.));
#1432=DIRECTION('center_axis',(0.,0.,-1.));
#1433=DIRECTION('ref_axis',(1.,0.,0.));
#1434=DIRECTION('center_axis',(0.,0.,1.));
#1435=DIRECTION('ref_axis',(1.,0.,0.));
#1436=DIRECTION('center_axis',(0.,0.,1.));
#1437=DIRECTION('ref_axis',(-1.,0.,0.));
#1438=DIRECTION('center_axis',(0.,0.,-1.));
#1439=DIRECTION('ref_axis',(1.,0.,0.));
#1440=DIRECTION('center_axis',(0.,0.,-1.));
#1441=DIRECTION('ref_axis',(1.,0.,0.));
#1442=DIRECTION('',(0.,0.,-1.));
#1443=DIRECTION('center_axis',(0.,0.,-1.));
#1444=DIRECTION('ref_axis',(1.,0.,0.));
#1445=DIRECTION('center_axis',(0.,0.,1.));
#1446=DIRECTION('ref_axis',(1.,0.,0.));
#1447=DIRECTION('center_axis',(0.,0.,1.));
#1448=DIRECTION('ref_axis',(-1.,0.,0.));
#1449=DIRECTION('center_axis',(0.,0.,-1.));
#1450=DIRECTION('ref_axis',(1.,0.,0.));
#1451=DIRECTION('center_axis',(0.,0.,-1.));
#1452=DIRECTION('ref_axis',(1.,0.,0.));
#1453=DIRECTION('',(0.,0.,-1.));
#1454=DIRECTION('center_axis',(0.,0.,-1.));
#1455=DIRECTION('ref_axis',(1.,0.,0.));
#1456=DIRECTION('center_axis',(0.,0.,1.));
#1457=DIRECTION('ref_axis',(1.,0.,0.));
#1458=DIRECTION('center_axis',(0.,0.,1.));
#1459=DIRECTION('ref_axis',(-1.,0.,0.));
#1460=DIRECTION('center_axis',(0.,0.,-1.));
#1461=DIRECTION('ref_axis',(1.,0.,0.));
#1462=DIRECTION('center_axis',(0.,0.,-1.));
#1463=DIRECTION('ref_axis',(1.,0.,0.));
#1464=DIRECTION('',(0.,0.,-1.));
#1465=DIRECTION('center_axis',(0.,0.,-1.));
#1466=DIRECTION('ref_axis',(1.,0.,0.));
#1467=DIRECTION('center_axis',(0.,0.,1.));
#1468=DIRECTION('ref_axis',(1.,0.,0.));
#1469=DIRECTION('center_axis',(0.,0.,1.));
#1470=DIRECTION('ref_axis',(-1.,0.,0.));
#1471=DIRECTION('center_axis',(0.,0.,-1.));
#1472=DIRECTION('ref_axis',(0.754298029456115,-0.656532164298613,0.));
#1473=DIRECTION('',(0.,0.,1.));
#1474=DIRECTION('center_axis',(0.,0.,-1.));
#1475=DIRECTION('ref_axis',(0.754298029456115,-0.656532164298613,0.));
#1476=DIRECTION('',(0.,0.,-1.));
#1477=DIRECTION('center_axis',(0.,0.,1.));
#1478=DIRECTION('ref_axis',(1.,0.,0.));
#1479=DIRECTION('center_axis',(0.,0.,-1.));
#1480=DIRECTION('ref_axis',(1.,-1.45716771982052E-16,0.));
#1481=DIRECTION('center_axis',(0.,0.,1.));
#1482=DIRECTION('ref_axis',(1.,-1.45716771982052E-16,0.));
#1483=DIRECTION('center_axis',(0.,1.85037170770859E-16,-1.));
#1484=DIRECTION('ref_axis',(1.,1.22464679914735E-16,0.));
#1485=DIRECTION('center_axis',(0.,-1.85037170770859E-16,1.));
#1486=DIRECTION('ref_axis',(1.,-9.79155028662465E-17,0.));
#1487=DIRECTION('center_axis',(-1.03074678247889E-16,-7.40148683083438E-16,
1.));
#1488=DIRECTION('ref_axis',(0.754298029456115,0.656532164298613,5.63680443496744E-16));
#1489=DIRECTION('',(0.,0.,-1.));
#1490=DIRECTION('',(-1.03074678247889E-16,-7.40148683083438E-16,1.));
#1491=DIRECTION('center_axis',(0.,0.,-1.));
#1492=DIRECTION('ref_axis',(0.754298029456115,0.656532164298613,5.63680443496744E-16));
#1493=DIRECTION('center_axis',(0.,1.,0.));
#1494=DIRECTION('ref_axis',(0.,0.,-1.));
#1495=DIRECTION('',(-1.,0.,0.));
#1496=DIRECTION('',(0.,0.,1.));
#1497=DIRECTION('center_axis',(0.,0.,-1.));
#1498=DIRECTION('ref_axis',(1.,0.,0.));
#1499=DIRECTION('center_axis',(0.,0.,-1.));
#1500=DIRECTION('ref_axis',(-1.,0.,0.));
#1501=DIRECTION('',(0.,0.,1.));
#1502=DIRECTION('center_axis',(0.,-1.85037170770859E-16,1.));
#1503=DIRECTION('ref_axis',(-1.,-1.16296774222373E-16,0.));
#1504=DIRECTION('',(0.,0.,-1.));
#1505=DIRECTION('center_axis',(0.,0.,-1.));
#1506=DIRECTION('ref_axis',(-1.,1.22464679914735E-16,0.));
#1507=DIRECTION('',(0.,0.,1.));
#1508=DIRECTION('center_axis',(0.,0.,1.));
#1509=DIRECTION('ref_axis',(1.,0.,0.));
#1510=DIRECTION('center_axis',(0.,0.,-1.));
#1511=DIRECTION('ref_axis',(-1.,1.22464679914735E-16,0.));
#1512=DIRECTION('',(0.,0.,1.));
#1513=DIRECTION('center_axis',(0.,-1.85037170770859E-16,1.));
#1514=DIRECTION('ref_axis',(-1.,-1.16296774222373E-16,0.));
#1515=DIRECTION('center_axis',(0.,1.85037170770859E-16,-1.));
#1516=DIRECTION('ref_axis',(-1.,0.,0.));
#1517=DIRECTION('center_axis',(-1.03074678247889E-16,7.40148683083438E-16,
-1.));
#1518=DIRECTION('ref_axis',(-0.754298029456115,0.656532164298613,5.63680443496744E-16));
#1519=DIRECTION('',(-1.03074678247889E-16,7.40148683083438E-16,-1.));
#1520=DIRECTION('center_axis',(0.,0.,-1.));
#1521=DIRECTION('ref_axis',(-0.754298029456115,0.656532164298613,5.63680443496744E-16));
#1522=DIRECTION('center_axis',(0.,0.,1.));
#1523=DIRECTION('ref_axis',(-0.754298029456114,-0.656532164298614,0.));
#1524=DIRECTION('',(0.,0.,1.));
#1525=DIRECTION('center_axis',(0.,0.,-1.));
#1526=DIRECTION('ref_axis',(-0.754298029456114,-0.656532164298614,0.));
#1527=DIRECTION('center_axis',(0.,0.,1.));
#1528=DIRECTION('ref_axis',(-1.,-1.22464679914735E-16,0.));
#1529=DIRECTION('center_axis',(0.,0.,1.));
#1530=DIRECTION('ref_axis',(-1.,1.22464679914735E-16,0.));
#1531=DIRECTION('center_axis',(0.,1.,0.));
#1532=DIRECTION('ref_axis',(0.,0.,-1.));
#1533=DIRECTION('',(0.,0.,-1.));
#1534=DIRECTION('',(-1.,0.,0.));
#1535=DIRECTION('center_axis',(0.,0.,-1.));
#1536=DIRECTION('ref_axis',(-1.,0.,0.));
#1537=DIRECTION('center_axis',(0.,0.,1.));
#1538=DIRECTION('ref_axis',(1.,0.,0.));
#1539=DIRECTION('center_axis',(0.,0.,1.));
#1540=DIRECTION('ref_axis',(1.,0.,0.));
#1541=DIRECTION('center_axis',(0.,0.,1.));
#1542=DIRECTION('ref_axis',(1.,0.,0.));
#1543=DIRECTION('center_axis',(0.,0.,1.));
#1544=DIRECTION('ref_axis',(1.,0.,0.));
#1545=DIRECTION('center_axis',(0.,0.,1.));
#1546=DIRECTION('ref_axis',(1.,0.,0.));
#1547=DIRECTION('center_axis',(0.,0.,1.));
#1548=DIRECTION('ref_axis',(1.,0.,0.));
#1549=DIRECTION('center_axis',(0.,0.,-1.));
#1550=DIRECTION('ref_axis',(1.,0.,0.));
#1551=DIRECTION('center_axis',(0.,0.,-1.));
#1552=DIRECTION('ref_axis',(1.,0.,0.));
#1553=DIRECTION('',(0.,0.,-1.));
#1554=DIRECTION('center_axis',(0.,0.,-1.));
#1555=DIRECTION('ref_axis',(1.,0.,0.));
#1556=DIRECTION('center_axis',(0.,0.,1.));
#1557=DIRECTION('ref_axis',(1.,0.,0.));
#1558=DIRECTION('center_axis',(0.,0.,-1.));
#1559=DIRECTION('ref_axis',(1.,0.,0.));
#1560=DIRECTION('center_axis',(0.,0.,-1.));
#1561=DIRECTION('ref_axis',(1.,0.,0.));
#1562=DIRECTION('',(0.,0.,-1.));
#1563=DIRECTION('center_axis',(0.,0.,-1.));
#1564=DIRECTION('ref_axis',(1.,0.,0.));
#1565=DIRECTION('center_axis',(0.,0.,1.));
#1566=DIRECTION('ref_axis',(1.,0.,0.));
#1567=DIRECTION('center_axis',(0.,0.,-1.));
#1568=DIRECTION('ref_axis',(1.,0.,0.));
#1569=DIRECTION('center_axis',(0.,0.,-1.));
#1570=DIRECTION('ref_axis',(1.,0.,0.));
#1571=DIRECTION('',(0.,0.,-1.));
#1572=DIRECTION('center_axis',(0.,0.,-1.));
#1573=DIRECTION('ref_axis',(1.,0.,0.));
#1574=DIRECTION('center_axis',(0.,0.,1.));
#1575=DIRECTION('ref_axis',(1.,0.,0.));
#1576=DIRECTION('center_axis',(0.,0.,-1.));
#1577=DIRECTION('ref_axis',(1.,0.,0.));
#1578=DIRECTION('center_axis',(0.,0.,-1.));
#1579=DIRECTION('ref_axis',(1.,0.,0.));
#1580=DIRECTION('',(0.,0.,-1.));
#1581=DIRECTION('center_axis',(0.,0.,-1.));
#1582=DIRECTION('ref_axis',(1.,0.,0.));
#1583=DIRECTION('center_axis',(0.,0.,1.));
#1584=DIRECTION('ref_axis',(1.,0.,0.));
#1585=DIRECTION('center_axis',(1.,1.48029736616688E-16,0.));
#1586=DIRECTION('ref_axis',(-1.48029736616688E-16,1.,0.));
#1587=DIRECTION('',(0.,0.,1.));
#1588=DIRECTION('',(1.48029736616688E-16,-1.,0.));
#1589=DIRECTION('',(0.,0.,1.));
#1590=DIRECTION('center_axis',(0.,-1.,0.));
#1591=DIRECTION('ref_axis',(1.,0.,0.));
#1592=DIRECTION('',(0.,0.,1.));
#1593=DIRECTION('',(-1.,0.,0.));
#1594=DIRECTION('center_axis',(1.,0.,0.));
#1595=DIRECTION('ref_axis',(0.,1.,0.));
#1596=DIRECTION('',(0.,0.,1.));
#1597=DIRECTION('',(0.,-1.,0.));
#1598=DIRECTION('center_axis',(-6.93889390390723E-17,1.,0.));
#1599=DIRECTION('ref_axis',(-1.,-6.93889390390723E-17,0.));
#1600=DIRECTION('',(0.,0.,1.));
#1601=DIRECTION('',(1.,6.93889390390723E-17,0.));
#1602=DIRECTION('center_axis',(1.,1.48029736616688E-16,0.));
#1603=DIRECTION('ref_axis',(-1.48029736616688E-16,1.,0.));
#1604=DIRECTION('',(1.48029736616688E-16,-1.,0.));
#1605=DIRECTION('center_axis',(0.,-1.,0.));
#1606=DIRECTION('ref_axis',(1.,0.,0.));
#1607=DIRECTION('',(-1.,0.,0.));
#1608=DIRECTION('center_axis',(0.,0.,1.));
#1609=DIRECTION('ref_axis',(-1.,0.,0.));
#1610=DIRECTION('center_axis',(0.,0.,-1.));
#1611=DIRECTION('ref_axis',(-1.,0.,0.));
#1612=DIRECTION('',(0.,0.,-1.));
#1613=DIRECTION('center_axis',(0.,0.,-1.));
#1614=DIRECTION('ref_axis',(-1.,0.,0.));
#1615=DIRECTION('',(0.,0.,-1.));
#1616=DIRECTION('',(0.,0.,1.));
#1617=DIRECTION('center_axis',(0.,0.,-1.));
#1618=DIRECTION('ref_axis',(-1.,0.,0.));
#1619=DIRECTION('center_axis',(0.,0.,-1.));
#1620=DIRECTION('ref_axis',(-1.,0.,0.));
#1621=DIRECTION('center_axis',(0.,-1.,-7.40148683083438E-16));
#1622=DIRECTION('ref_axis',(0.,-7.40148683083438E-16,1.));
#1623=DIRECTION('',(-1.,0.,0.));
#1624=DIRECTION('center_axis',(0.,0.,1.));
#1625=DIRECTION('ref_axis',(0.,1.,0.));
#1626=DIRECTION('center_axis',(0.,0.,1.));
#1627=DIRECTION('ref_axis',(0.,1.,0.));
#1628=DIRECTION('',(-1.,0.,0.));
#1629=DIRECTION('center_axis',(0.,-1.,-7.40148683083438E-16));
#1630=DIRECTION('ref_axis',(0.,-7.40148683083438E-16,1.));
#1631=DIRECTION('center_axis',(0.,0.,1.));
#1632=DIRECTION('ref_axis',(1.,0.,0.));
#1633=DIRECTION('center_axis',(0.,0.,-1.));
#1634=DIRECTION('ref_axis',(1.,0.,0.));
#1635=DIRECTION('center_axis',(0.,0.,1.));
#1636=DIRECTION('ref_axis',(1.,0.,0.));
#1637=DIRECTION('',(0.,0.,1.));
#1638=DIRECTION('center_axis',(0.,0.,-1.));
#1639=DIRECTION('ref_axis',(-1.,0.,0.));
#1640=DIRECTION('center_axis',(0.,0.,-1.));
#1641=DIRECTION('ref_axis',(-1.,0.,0.));
#1642=DIRECTION('',(0.,0.,1.));
#1643=DIRECTION('center_axis',(0.,0.,-1.));
#1644=DIRECTION('ref_axis',(-1.,0.,0.));
#1645=DIRECTION('center_axis',(0.,0.,-1.));
#1646=DIRECTION('ref_axis',(-1.,0.,0.));
#1647=DIRECTION('',(0.,0.,1.));
#1648=DIRECTION('center_axis',(0.,0.,-1.));
#1649=DIRECTION('ref_axis',(-1.,0.,0.));
#1650=DIRECTION('',(0.,0.,1.));
#1651=DIRECTION('center_axis',(0.,0.,-1.));
#1652=DIRECTION('ref_axis',(-1.,0.,0.));
#1653=DIRECTION('',(0.,0.,1.));
#1654=DIRECTION('center_axis',(0.,0.,-1.));
#1655=DIRECTION('ref_axis',(-1.,0.,0.));
#1656=DIRECTION('',(0.,0.,1.));
#1657=DIRECTION('center_axis',(0.,0.,1.));
#1658=DIRECTION('ref_axis',(1.,0.,0.));
#1659=CARTESIAN_POINT('',(0.,0.,0.));
#1660=CARTESIAN_POINT('Origin',(36.5,18.,9.50000000000001));
#1661=CARTESIAN_POINT('',(36.5,5.5,11.));
#1662=CARTESIAN_POINT('',(36.5,31.5,11.));
#1663=CARTESIAN_POINT('',(36.5,18.,11.));
#1664=CARTESIAN_POINT('',(35.,30.,9.50000000000001));
#1665=CARTESIAN_POINT('Origin',(36.5,31.5,9.50000000000001));
#1666=CARTESIAN_POINT('',(35.,4.,9.5));
#1667=CARTESIAN_POINT('',(35.,18.,9.50000000000001));
#1668=CARTESIAN_POINT('Origin',(36.5,5.5,9.5));
#1669=CARTESIAN_POINT('Origin',(12.5,31.5,9.50000000000001));
#1670=CARTESIAN_POINT('',(-36.5,31.5,11.));
#1671=CARTESIAN_POINT('',(12.5,31.5,11.));
#1672=CARTESIAN_POINT('',(-35.,30.,9.50000000000001));
#1673=CARTESIAN_POINT('Origin',(-36.5,31.5,9.50000000000001));
#1674=CARTESIAN_POINT('',(12.5,30.,9.50000000000001));
#1675=CARTESIAN_POINT('Origin',(-36.5,4.99999999999999,9.5));
#1676=CARTESIAN_POINT('',(-36.5,5.50000000000001,11.));
#1677=CARTESIAN_POINT('',(-36.5,4.99999999999999,11.));
#1678=CARTESIAN_POINT('',(-35.,4.00000000000001,9.5));
#1679=CARTESIAN_POINT('Origin',(-36.5,5.50000000000001,9.5));
#1680=CARTESIAN_POINT('',(-35.,4.99999999999999,9.5));
#1681=CARTESIAN_POINT('Origin',(8.5,5.50000000000001,9.5));
#1682=CARTESIAN_POINT('',(-44.5,5.50000000000001,11.));
#1683=CARTESIAN_POINT('',(8.5,5.50000000000001,11.));
#1684=CARTESIAN_POINT('',(-43.,4.00000000000001,9.5));
#1685=CARTESIAN_POINT('Origin',(-44.5,5.50000000000001,9.5));
#1686=CARTESIAN_POINT('',(8.5,4.00000000000001,9.5));
#1687=CARTESIAN_POINT('Origin',(-44.5,1.,9.5));
#1688=CARTESIAN_POINT('',(-44.5,-5.49999999999999,11.));
#1689=CARTESIAN_POINT('',(-44.5,1.,11.));
#1690=CARTESIAN_POINT('',(-43.,-3.99999999999999,9.5));
#1691=CARTESIAN_POINT('Origin',(-44.5,-5.49999999999999,9.5));
#1692=CARTESIAN_POINT('',(-43.,1.,9.5));
#1693=CARTESIAN_POINT('Origin',(12.5,-5.49999999999999,9.5));
#1694=CARTESIAN_POINT('',(-36.5,-5.49999999999999,11.));
#1695=CARTESIAN_POINT('',(12.5,-5.49999999999999,11.));
#1696=CARTESIAN_POINT('',(-35.,-3.99999999999999,9.5));
#1697=CARTESIAN_POINT('Origin',(-36.5,-5.49999999999999,9.5));
#1698=CARTESIAN_POINT('',(12.5,-3.99999999999999,9.5));
#1699=CARTESIAN_POINT('Origin',(-36.5,-12.,9.5));
#1700=CARTESIAN_POINT('',(-36.5,-31.5,11.));
#1701=CARTESIAN_POINT('',(-36.5,-12.,11.));
#1702=CARTESIAN_POINT('',(-35.,-30.,9.5));
#1703=CARTESIAN_POINT('Origin',(-36.5,-31.5,9.5));
#1704=CARTESIAN_POINT('',(-35.,-12.,9.5));
#1705=CARTESIAN_POINT('Origin',(47.5,-31.5,9.5));
#1706=CARTESIAN_POINT('',(35.,-30.,9.5));
#1707=CARTESIAN_POINT('',(47.5,-30.,9.5));
#1708=CARTESIAN_POINT('',(36.5,-31.5,11.));
#1709=CARTESIAN_POINT('',(47.5,-31.5,11.));
#1710=CARTESIAN_POINT('Origin',(36.5,-31.5,9.5));
#1711=CARTESIAN_POINT('Origin',(36.5,0.999999999999996,9.5));
#1712=CARTESIAN_POINT('',(35.,-4.,9.5));
#1713=CARTESIAN_POINT('',(35.,0.999999999999996,9.5));
#1714=CARTESIAN_POINT('',(36.5,-5.5,11.));
#1715=CARTESIAN_POINT('',(36.5,0.999999999999996,11.));
#1716=CARTESIAN_POINT('Origin',(36.5,-5.5,9.5));
#1717=CARTESIAN_POINT('Origin',(51.5,-5.5,9.5));
#1718=CARTESIAN_POINT('',(43.,-4.,9.5));
#1719=CARTESIAN_POINT('',(51.5,-4.,9.5));
#1720=CARTESIAN_POINT('',(44.5,-5.5,11.));
#1721=CARTESIAN_POINT('',(51.5,-5.5,11.));
#1722=CARTESIAN_POINT('Origin',(44.5,-5.5,9.5));
#1723=CARTESIAN_POINT('Origin',(44.5,5.,9.5));
#1724=CARTESIAN_POINT('',(43.,4.,9.5));
#1725=CARTESIAN_POINT('',(43.,5.,9.5));
#1726=CARTESIAN_POINT('',(44.5,5.5,11.));
#1727=CARTESIAN_POINT('',(44.5,5.,11.));
#1728=CARTESIAN_POINT('Origin',(44.5,5.5,9.5));
#1729=CARTESIAN_POINT('Origin',(47.5,5.5,9.5));
#1730=CARTESIAN_POINT('',(47.5,4.,9.5));
#1731=CARTESIAN_POINT('',(47.5,5.5,11.));
#1732=CARTESIAN_POINT('Origin',(35.,-30.,0.));
#1733=CARTESIAN_POINT('',(35.,-30.,0.));
#1734=CARTESIAN_POINT('',(35.,-30.,0.));
#1735=CARTESIAN_POINT('',(-35.,-30.,0.));
#1736=CARTESIAN_POINT('',(17.5,-30.,0.));
#1737=CARTESIAN_POINT('',(-35.,-30.,0.));
#1738=CARTESIAN_POINT('Origin',(35.,-4.,0.));
#1739=CARTESIAN_POINT('',(35.,-4.,0.));
#1740=CARTESIAN_POINT('',(35.,-4.,0.));
#1741=CARTESIAN_POINT('',(35.,-2.,0.));
#1742=CARTESIAN_POINT('Origin',(43.,-4.,0.));
#1743=CARTESIAN_POINT('',(43.,-4.,0.));
#1744=CARTESIAN_POINT('',(43.,-4.,0.));
#1745=CARTESIAN_POINT('',(21.5,-4.,0.));
#1746=CARTESIAN_POINT('Origin',(43.,4.,0.));
#1747=CARTESIAN_POINT('',(43.,4.,0.));
#1748=CARTESIAN_POINT('',(43.,4.,0.));
#1749=CARTESIAN_POINT('',(43.,2.,0.));
#1750=CARTESIAN_POINT('Origin',(35.,4.,0.));
#1751=CARTESIAN_POINT('',(35.,4.,0.));
#1752=CARTESIAN_POINT('',(35.,4.,0.));
#1753=CARTESIAN_POINT('',(17.5,4.,0.));
#1754=CARTESIAN_POINT('Origin',(35.,30.,0.));
#1755=CARTESIAN_POINT('',(35.,30.,0.));
#1756=CARTESIAN_POINT('',(35.,30.,0.));
#1757=CARTESIAN_POINT('',(35.,15.,0.));
#1758=CARTESIAN_POINT('Origin',(60.,5.99999999999999,11.));
#1759=CARTESIAN_POINT('',(57.687294362462,6.0146545319465,11.));
#1760=CARTESIAN_POINT('',(57.687294362462,-6.01465453194652,11.));
#1761=CARTESIAN_POINT('Origin',(0.,-3.70074341541719E-16,11.));
#1762=CARTESIAN_POINT('',(57.4456264653803,5.99999999999999,11.));
#1763=CARTESIAN_POINT('Origin',(57.4456264653803,7.99999999999999,11.));
#1764=CARTESIAN_POINT('',(49.6386945839634,5.99999999999999,11.));
#1765=CARTESIAN_POINT('',(60.,5.99999999999999,11.));
#1766=CARTESIAN_POINT('',(-49.6386945839634,5.99999999999999,11.));
#1767=CARTESIAN_POINT('Origin',(0.,0.,11.));
#1768=CARTESIAN_POINT('',(-57.4456264653803,5.99999999999999,11.));
#1769=CARTESIAN_POINT('',(60.,5.99999999999999,11.));
#1770=CARTESIAN_POINT('',(-57.687294362462,6.01465453194651,11.));
#1771=CARTESIAN_POINT('Origin',(-57.4456264653803,8.,11.));
#1772=CARTESIAN_POINT('',(-57.687294362462,-6.01465453194652,11.));
#1773=CARTESIAN_POINT('Origin',(0.,-3.70074341541719E-16,11.));
#1774=CARTESIAN_POINT('',(-57.4456264653803,-6.00000000000001,11.));
#1775=CARTESIAN_POINT('Origin',(-57.4456264653803,-8.00000000000001,11.));
#1776=CARTESIAN_POINT('',(-49.6386945839634,-6.00000000000001,11.));
#1777=CARTESIAN_POINT('',(60.,-6.00000000000001,11.));
#1778=CARTESIAN_POINT('',(49.6386945839634,-6.00000000000001,11.));
#1779=CARTESIAN_POINT('Origin',(0.,0.,11.));
#1780=CARTESIAN_POINT('',(57.4456264653803,-6.00000000000001,11.));
#1781=CARTESIAN_POINT('',(60.,-6.00000000000001,11.));
#1782=CARTESIAN_POINT('Origin',(57.4456264653803,-8.00000000000001,11.));
#1783=CARTESIAN_POINT('Origin',(8.,-8.43769498715119E-14,0.));
#1784=CARTESIAN_POINT('',(5.5,-8.40707881717251E-14,0.));
#1785=CARTESIAN_POINT('Origin',(8.,-8.43769498715119E-14,0.));
#1786=CARTESIAN_POINT('',(5.5,-8.40707881717251E-14,-6.));
#1787=CARTESIAN_POINT('',(5.5,-8.40707881717251E-14,0.));
#1788=CARTESIAN_POINT('Origin',(8.,-8.43769498715119E-14,-6.));
#1789=CARTESIAN_POINT('Origin',(8.,-8.43769498715119E-14,-6.));
#1790=CARTESIAN_POINT('',(9.3,-8.36626342753102E-14,-6.));
#1791=CARTESIAN_POINT('Origin',(8.,-8.38218383591993E-14,-6.));
#1792=CARTESIAN_POINT('Origin',(0.,8.,0.));
#1793=CARTESIAN_POINT('',(-2.5,8.,0.));
#1794=CARTESIAN_POINT('Origin',(0.,8.,0.));
#1795=CARTESIAN_POINT('',(-2.5,8.,-6.));
#1796=CARTESIAN_POINT('',(-2.5,8.,0.));
#1797=CARTESIAN_POINT('Origin',(0.,8.,-6.));
#1798=CARTESIAN_POINT('Origin',(0.,8.,-6.));
#1799=CARTESIAN_POINT('',(1.3,8.,-6.));
#1800=CARTESIAN_POINT('Origin',(0.,8.,-6.));
#1801=CARTESIAN_POINT('Origin',(0.,-8.,0.));
#1802=CARTESIAN_POINT('',(-2.5,-8.,0.));
#1803=CARTESIAN_POINT('Origin',(0.,-8.,0.));
#1804=CARTESIAN_POINT('',(-2.5,-8.,-6.));
#1805=CARTESIAN_POINT('',(-2.5,-8.,0.));
#1806=CARTESIAN_POINT('Origin',(0.,-8.,-6.));
#1807=CARTESIAN_POINT('Origin',(0.,-8.,-6.));
#1808=CARTESIAN_POINT('',(1.3,-8.,-6.));
#1809=CARTESIAN_POINT('Origin',(0.,-8.,-6.));
#1810=CARTESIAN_POINT('Origin',(-8.,8.38218383591993E-14,0.));
#1811=CARTESIAN_POINT('',(-10.5,8.41280000589862E-14,0.));
#1812=CARTESIAN_POINT('Origin',(-8.,8.38218383591993E-14,0.));
#1813=CARTESIAN_POINT('',(-10.5,8.41280000589862E-14,-6.));
#1814=CARTESIAN_POINT('',(-10.5,8.41280000589862E-14,0.));
#1815=CARTESIAN_POINT('Origin',(-8.,8.38218383591993E-14,-6.));
#1816=CARTESIAN_POINT('Origin',(-8.,8.38218383591993E-14,-6.));
#1817=CARTESIAN_POINT('',(-6.7,8.39810424430885E-14,-6.));
#1818=CARTESIAN_POINT('Origin',(-8.,8.38218383591993E-14,-6.));
#1819=CARTESIAN_POINT('Origin',(57.4456264653803,7.99999999999999,0.));
#1820=CARTESIAN_POINT('',(59.4265101366003,8.27586206896551,9.00000000000001));
#1821=CARTESIAN_POINT('',(59.4265101366003,8.27586206896551,19.));
#1822=CARTESIAN_POINT('',(59.4265101366003,8.27586206896551,0.));
#1823=CARTESIAN_POINT('',(57.687294362462,6.0146545319465,17.));
#1824=CARTESIAN_POINT('Ctrl Pts',(59.4265101366003,8.27586206896551,19.));
#1825=CARTESIAN_POINT('Ctrl Pts',(59.4268057216537,8.27373956039429,18.9978930275939));
#1826=CARTESIAN_POINT('Ctrl Pts',(59.4270978954844,8.27161657555563,18.9957860540087));
#1827=CARTESIAN_POINT('Ctrl Pts',(59.4558750542004,8.05999919918423,18.7858116006402));
#1828=CARTESIAN_POINT('Ctrl Pts',(59.4513089656951,7.84478016026099,18.5768450732229));
#1829=CARTESIAN_POINT('Ctrl Pts',(59.3734950756892,7.42908228414773,18.1815671009468));
#1830=CARTESIAN_POINT('Ctrl Pts',(59.3029580782448,7.22601444040667,17.9924014103489));
#1831=CARTESIAN_POINT('Ctrl Pts',(59.0858944200631,6.83314786828908,17.6354674711699));
#1832=CARTESIAN_POINT('Ctrl Pts',(58.9353924200825,6.64145676766635,17.4662812843249));
#1833=CARTESIAN_POINT('Ctrl Pts',(58.5956135266734,6.35258063841448,17.2239622783396));
#1834=CARTESIAN_POINT('Ctrl Pts',(58.4260246045112,6.24430659721866,17.1378652305696));
#1835=CARTESIAN_POINT('Ctrl Pts',(58.0676902440043,6.090602147485,17.0293946061257));
#1836=CARTESIAN_POINT('Ctrl Pts',(57.8892509209257,6.04080627807805,17.0015561384582));
#1837=CARTESIAN_POINT('Ctrl Pts',(57.6978190385227,6.01595688642981,17.0000210673598));
#1838=CARTESIAN_POINT('Ctrl Pts',(57.6925562992497,6.01529504576072,17.));
#1839=CARTESIAN_POINT('Ctrl Pts',(57.6872943624612,6.01465453194651,17.));
#1840=CARTESIAN_POINT('',(57.4456264653803,5.99999999999999,17.));
#1841=CARTESIAN_POINT('Origin',(57.4456264653803,7.99999999999999,17.));
#1842=CARTESIAN_POINT('',(57.4456264653803,5.99999999999999,0.));
#1843=CARTESIAN_POINT('Ctrl Pts',(59.4265101366003,8.27586206896552,9.00000000000001));
#1844=CARTESIAN_POINT('Ctrl Pts',(59.4268057216539,8.27373956039325,9.00210697240716));
#1845=CARTESIAN_POINT('Ctrl Pts',(59.4270978954843,8.27161657555622,9.00421394599072));
#1846=CARTESIAN_POINT('Ctrl Pts',(59.4558750542004,8.05999919918359,9.21418839935984));
#1847=CARTESIAN_POINT('Ctrl Pts',(59.451308965695,7.84478016026066,9.4231549267774));
#1848=CARTESIAN_POINT('Ctrl Pts',(59.3734950756892,7.42908228414766,9.8184328990533));
#1849=CARTESIAN_POINT('Ctrl Pts',(59.3029580782448,7.22601444040661,10.0075985896511));
#1850=CARTESIAN_POINT('Ctrl Pts',(59.0858944200631,6.83314786828893,10.3645325288302));
#1851=CARTESIAN_POINT('Ctrl Pts',(58.9353924200824,6.64145676766634,10.5337187156751));
#1852=CARTESIAN_POINT('Ctrl Pts',(58.5956135266737,6.35258063841474,10.7760377216602));
#1853=CARTESIAN_POINT('Ctrl Pts',(58.4260246045113,6.24430659721865,10.8621347694304));
#1854=CARTESIAN_POINT('Ctrl Pts',(58.0676902440042,6.0906021474849,10.9706053938743));
#1855=CARTESIAN_POINT('Ctrl Pts',(57.8892509209257,6.040806278078,10.9984438615418));
#1856=CARTESIAN_POINT('Ctrl Pts',(57.6978190385227,6.01595688642977,10.9999789326402));
#1857=CARTESIAN_POINT('Ctrl Pts',(57.6925562992497,6.01529504576072,11.));
#1858=CARTESIAN_POINT('Ctrl Pts',(57.6872943624611,6.01465453194651,11.));
#1859=CARTESIAN_POINT('Origin',(0.,0.,19.));
#1860=CARTESIAN_POINT('',(59.4265101366003,-8.27586206896552,19.));
#1861=CARTESIAN_POINT('Origin',(0.,0.,19.));
#1862=CARTESIAN_POINT('',(57.687294362462,-6.01465453194652,17.));
#1863=CARTESIAN_POINT('Ctrl Pts',(59.4265101366003,-8.27586206896553,19.));
#1864=CARTESIAN_POINT('Ctrl Pts',(59.4268057216541,-8.27373956039154,18.9978930275911));
#1865=CARTESIAN_POINT('Ctrl Pts',(59.4270978954844,-8.27161657555559,18.9957860540086));
#1866=CARTESIAN_POINT('Ctrl Pts',(59.4558750542011,-8.0599991991766,18.7858116006344));
#1867=CARTESIAN_POINT('Ctrl Pts',(59.4513089656947,-7.84478016025118,18.5768450732134));
#1868=CARTESIAN_POINT('Ctrl Pts',(59.3734950756849,-7.429082284132,18.181567100932));
#1869=CARTESIAN_POINT('Ctrl Pts',(59.3029580782376,-7.22601444038828,17.9924014103318));
#1870=CARTESIAN_POINT('Ctrl Pts',(59.0858944200502,-6.83314786827124,17.635467471154));
#1871=CARTESIAN_POINT('Ctrl Pts',(58.9353924200685,-6.64145676765135,17.4662812843119));
#1872=CARTESIAN_POINT('Ctrl Pts',(58.5956135266586,-6.35258063840425,17.2239622783313));
#1873=CARTESIAN_POINT('Ctrl Pts',(58.426024604496,-6.24430659721031,17.1378652305632));
#1874=CARTESIAN_POINT('Ctrl Pts',(58.0676902439886,-6.09060214747984,17.0293946061225));
#1875=CARTESIAN_POINT('Ctrl Pts',(57.8892509209097,-6.04080627807447,17.0015561384566));
#1876=CARTESIAN_POINT('Ctrl Pts',(57.697819038512,-6.01595688642849,17.0000210673598));
#1877=CARTESIAN_POINT('Ctrl Pts',(57.6925562992444,-6.01529504576009,17.));
#1878=CARTESIAN_POINT('Ctrl Pts',(57.6872943624611,-6.01465453194653,17.));
#1879=CARTESIAN_POINT('Origin',(0.,0.,17.));
#1880=CARTESIAN_POINT('Origin',(0.,0.,9.));
#1881=CARTESIAN_POINT('',(59.4265101366003,-8.27586206896552,9.));
#1882=CARTESIAN_POINT('Ctrl Pts',(57.6872943624619,-6.01465453194662,11.));
#1883=CARTESIAN_POINT('Ctrl Pts',(57.8734293963468,-6.03731198020235,11.));
#1884=CARTESIAN_POINT('Ctrl Pts',(58.0522238728025,-6.08562065053192,10.9736685890166));
#1885=CARTESIAN_POINT('Ctrl Pts',(58.4110102051361,-6.23611970543428,10.8683903375921));
#1886=CARTESIAN_POINT('Ctrl Pts',(58.5808506105236,-6.34244865726609,10.7842162050857));
#1887=CARTESIAN_POINT('Ctrl Pts',(58.9215273710313,-6.62670834394279,10.5464824728341));
#1888=CARTESIAN_POINT('Ctrl Pts',(59.0730501414467,-6.81557898265661,10.380141985739));
#1889=CARTESIAN_POINT('Ctrl Pts',(59.2959985552606,-7.20832909022439,10.0239823491799));
#1890=CARTESIAN_POINT('Ctrl Pts',(59.369501902298,-7.41452467140613,9.83212207051832));
#1891=CARTESIAN_POINT('Ctrl Pts',(59.4511398000967,-7.83713403183473,9.43057807032763));
#1892=CARTESIAN_POINT('Ctrl Pts',(59.4563795672923,-8.056289182573,9.21786961270499));
#1893=CARTESIAN_POINT('Ctrl Pts',(59.4270978954844,-8.27161657555555,9.00421394599136));
#1894=CARTESIAN_POINT('Ctrl Pts',(59.4268057216537,-8.27373956039439,9.00210697240602));
#1895=CARTESIAN_POINT('Ctrl Pts',(59.4265101366003,-8.27586206896552,9.));
#1896=CARTESIAN_POINT('Origin',(0.,0.,9.));
#1897=CARTESIAN_POINT('Origin',(57.4456264653803,-8.,0.));
#1898=CARTESIAN_POINT('',(59.4265101366003,-8.27586206896552,0.));
#1899=CARTESIAN_POINT('',(57.4456264653803,-6.00000000000001,17.));
#1900=CARTESIAN_POINT('',(57.4456264653803,-6.,1.48029736616688E-15));
#1901=CARTESIAN_POINT('Origin',(57.4456264653803,-8.00000000000001,17.));
#1902=CARTESIAN_POINT('Origin',(60.,5.99999999999999,17.));
#1903=CARTESIAN_POINT('',(49.6386945839634,5.99999999999999,17.));
#1904=CARTESIAN_POINT('',(60.,5.99999999999999,17.));
#1905=CARTESIAN_POINT('',(49.6386945839634,5.99999999999999,0.));
#1906=CARTESIAN_POINT('Origin',(0.,0.,0.));
#1907=CARTESIAN_POINT('',(-60.,0.,-14.));
#1908=CARTESIAN_POINT('Origin',(0.,0.,-14.));
#1909=CARTESIAN_POINT('',(-60.,7.34788079488412E-15,9.));
#1910=CARTESIAN_POINT('',(-60.,7.34788079488412E-15,0.));
#1911=CARTESIAN_POINT('',(-59.4265101366003,8.27586206896552,9.00000000000001));
#1912=CARTESIAN_POINT('Origin',(0.,0.,9.));
#1913=CARTESIAN_POINT('',(-59.4265101366003,8.27586206896552,19.));
#1914=CARTESIAN_POINT('',(-59.4265101366003,8.27586206896552,0.));
#1915=CARTESIAN_POINT('',(-60.,7.34788079488412E-15,19.));
#1916=CARTESIAN_POINT('Origin',(0.,0.,19.));
#1917=CARTESIAN_POINT('',(-60.,7.34788079488412E-15,30.));
#1918=CARTESIAN_POINT('',(-60.,7.34788079488412E-15,0.));
#1919=CARTESIAN_POINT('Origin',(0.,0.,30.));
#1920=CARTESIAN_POINT('',(-59.4265101366003,-8.27586206896552,19.));
#1921=CARTESIAN_POINT('Origin',(0.,0.,19.));
#1922=CARTESIAN_POINT('',(-59.4265101366003,-8.27586206896552,9.));
#1923=CARTESIAN_POINT('',(-59.4265101366003,-8.27586206896552,0.));
#1924=CARTESIAN_POINT('Origin',(0.,0.,9.));
#1925=CARTESIAN_POINT('Origin',(0.,0.,9.));
#1926=CARTESIAN_POINT('Ctrl Pts',(-59.4265101366003,-8.27586206896553,9.));
#1927=CARTESIAN_POINT('Ctrl Pts',(-59.4268057216537,-8.27373956039446,9.00210697240595));
#1928=CARTESIAN_POINT('Ctrl Pts',(-59.4270978954844,-8.27161657555543,9.00421394599153));
#1929=CARTESIAN_POINT('Ctrl Pts',(-59.4558750542005,-8.05999919918345,9.21418839935949));
#1930=CARTESIAN_POINT('Ctrl Pts',(-59.451308965695,-7.84478016026024,9.42315492677781));
#1931=CARTESIAN_POINT('Ctrl Pts',(-59.3734950756889,-7.42908228414627,9.81843289905461));
#1932=CARTESIAN_POINT('Ctrl Pts',(-59.3029580782441,-7.22601444040498,10.0075985896527));
#1933=CARTESIAN_POINT('Ctrl Pts',(-59.0858944200619,-6.83314786828743,10.3645325288316));
#1934=CARTESIAN_POINT('Ctrl Pts',(-58.9353924200812,-6.64145676766495,10.5337187156763));
#1935=CARTESIAN_POINT('Ctrl Pts',(-58.5956135266722,-6.3525806384137,10.7760377216611));
#1936=CARTESIAN_POINT('Ctrl Pts',(-58.4260246045098,-6.24430659721787,10.862134769431));
#1937=CARTESIAN_POINT('Ctrl Pts',(-58.0676902440027,-6.09060214748444,10.9706053938746));
#1938=CARTESIAN_POINT('Ctrl Pts',(-57.8892509209242,-6.04080627807769,10.998443861542));
#1939=CARTESIAN_POINT('Ctrl Pts',(-57.6978190385217,-6.01595688642967,10.9999789326402));
#1940=CARTESIAN_POINT('Ctrl Pts',(-57.6925562992492,-6.01529504576067,11.));
#1941=CARTESIAN_POINT('Ctrl Pts',(-57.6872943624612,-6.01465453194652,11.));
#1942=CARTESIAN_POINT('Ctrl Pts',(-57.687294362462,6.01465453194661,11.));
#1943=CARTESIAN_POINT('Ctrl Pts',(-57.8734293963468,6.03731198020235,11.));
#1944=CARTESIAN_POINT('Ctrl Pts',(-58.0522238728025,6.08562065053193,10.9736685890166));
#1945=CARTESIAN_POINT('Ctrl Pts',(-58.4110102051361,6.23611970543429,10.8683903375921));
#1946=CARTESIAN_POINT('Ctrl Pts',(-58.5808506105236,6.34244865726614,10.7842162050857));
#1947=CARTESIAN_POINT('Ctrl Pts',(-58.9215273710313,6.62670834394279,10.5464824728342));
#1948=CARTESIAN_POINT('Ctrl Pts',(-59.0730501414467,6.81557898265652,10.3801419857391));
#1949=CARTESIAN_POINT('Ctrl Pts',(-59.2959985552603,7.20832909022392,10.0239823491803));
#1950=CARTESIAN_POINT('Ctrl Pts',(-59.3695019022977,7.41452467140519,9.83212207051919));
#1951=CARTESIAN_POINT('Ctrl Pts',(-59.4511398000965,7.8371340318325,9.43057807032978));
#1952=CARTESIAN_POINT('Ctrl Pts',(-59.4563795672983,8.05628918252869,9.21786961265863));
#1953=CARTESIAN_POINT('Ctrl Pts',(-59.4270978954845,8.27161657555441,9.00421394599619));
#1954=CARTESIAN_POINT('Ctrl Pts',(-59.4268057216535,8.27373956039592,9.0021069724045));
#1955=CARTESIAN_POINT('Ctrl Pts',(-59.4265101366003,8.27586206896552,9.00000000000001));
#1956=CARTESIAN_POINT('Origin',(-57.4456264653803,-8.,0.));
#1957=CARTESIAN_POINT('',(-57.4456264653803,-6.00000000000001,17.));
#1958=CARTESIAN_POINT('',(-57.4456264653803,-6.,1.48029736616688E-15));
#1959=CARTESIAN_POINT('',(-57.687294362462,-6.01465453194652,17.));
#1960=CARTESIAN_POINT('Ctrl Pts',(-57.687294362462,-6.01465453194662,17.));
#1961=CARTESIAN_POINT('Ctrl Pts',(-57.8734293963469,-6.03731198020236,17.));
#1962=CARTESIAN_POINT('Ctrl Pts',(-58.0522238728026,-6.08562065053198,17.0263314109834));
#1963=CARTESIAN_POINT('Ctrl Pts',(-58.411010205136,-6.2361197054343,17.1316096624079));
#1964=CARTESIAN_POINT('Ctrl Pts',(-58.5808506105235,-6.34244865726604,17.2157837949142));
#1965=CARTESIAN_POINT('Ctrl Pts',(-58.9215273710313,-6.62670834394279,17.4535175271659));
#1966=CARTESIAN_POINT('Ctrl Pts',(-59.0730501414467,-6.81557898265661,17.619858014261));
#1967=CARTESIAN_POINT('Ctrl Pts',(-59.2959985552606,-7.20832909022439,17.9760176508201));
#1968=CARTESIAN_POINT('Ctrl Pts',(-59.369501902298,-7.41452467140614,18.1678779294817));
#1969=CARTESIAN_POINT('Ctrl Pts',(-59.4511398000966,-7.83713403183411,18.5694219296718));
#1970=CARTESIAN_POINT('Ctrl Pts',(-59.4563795672986,-8.05628918252885,18.7821303873437));
#1971=CARTESIAN_POINT('Ctrl Pts',(-59.4270978954841,-8.27161657555799,18.9957860540073));
#1972=CARTESIAN_POINT('Ctrl Pts',(-59.4268057216536,-8.27373956039525,18.9978930275948));
#1973=CARTESIAN_POINT('Ctrl Pts',(-59.4265101366003,-8.27586206896552,19.));
#1974=CARTESIAN_POINT('Origin',(-57.4456264653803,-8.00000000000001,17.));
#1975=CARTESIAN_POINT('Origin',(-57.4456264653803,8.,0.));
#1976=CARTESIAN_POINT('',(-57.4456264653803,5.99999999999999,17.));
#1977=CARTESIAN_POINT('',(-57.4456264653803,5.99999999999999,0.));
#1978=CARTESIAN_POINT('',(-57.687294362462,6.01465453194651,17.));
#1979=CARTESIAN_POINT('Origin',(-57.4456264653803,8.,17.));
#1980=CARTESIAN_POINT('Ctrl Pts',(-57.687294362462,6.01465453194661,17.));
#1981=CARTESIAN_POINT('Ctrl Pts',(-57.8734293963469,6.03731198020235,17.));
#1982=CARTESIAN_POINT('Ctrl Pts',(-58.0522238728026,6.08562065053196,17.0263314109834));
#1983=CARTESIAN_POINT('Ctrl Pts',(-58.4110102051361,6.23611970543428,17.1316096624079));
#1984=CARTESIAN_POINT('Ctrl Pts',(-58.5808506105236,6.34244865726608,17.2157837949143));
#1985=CARTESIAN_POINT('Ctrl Pts',(-58.9215273710313,6.62670834394278,17.4535175271659));
#1986=CARTESIAN_POINT('Ctrl Pts',(-59.0730501414467,6.81557898265656,17.6198580142609));
#1987=CARTESIAN_POINT('Ctrl Pts',(-59.2959985552603,7.20832909022389,17.9760176508197));
#1988=CARTESIAN_POINT('Ctrl Pts',(-59.3695019022976,7.41452467140506,18.1678779294807));
#1989=CARTESIAN_POINT('Ctrl Pts',(-59.4511398000964,7.83713403183221,18.56942192967));
#1990=CARTESIAN_POINT('Ctrl Pts',(-59.4563795672986,8.05628918252662,18.7821303873412));
#1991=CARTESIAN_POINT('Ctrl Pts',(-59.4270978954844,8.27161657555573,18.9957860540051));
#1992=CARTESIAN_POINT('Ctrl Pts',(-59.4268057216537,8.27373956039467,18.9978930275943));
#1993=CARTESIAN_POINT('Ctrl Pts',(-59.4265101366003,8.27586206896552,19.));
#1994=CARTESIAN_POINT('Origin',(0.,0.,19.));
#1995=CARTESIAN_POINT('Origin',(0.,0.,17.));
#1996=CARTESIAN_POINT('Origin',(60.,5.99999999999999,17.));
#1997=CARTESIAN_POINT('',(-49.6386945839634,5.99999999999999,17.));
#1998=CARTESIAN_POINT('',(-49.6386945839634,5.99999999999999,0.));
#1999=CARTESIAN_POINT('',(60.,5.99999999999999,17.));
#2000=CARTESIAN_POINT('Origin',(0.,0.,-9.));
#2001=CARTESIAN_POINT('',(-50.,0.,-9.));
#2002=CARTESIAN_POINT('Origin',(0.,0.,-9.));
#2003=CARTESIAN_POINT('',(9.3,-8.38218383591993E-14,-9.));
#2004=CARTESIAN_POINT('Origin',(8.,-8.38218383591993E-14,-9.));
#2005=CARTESIAN_POINT('',(1.3,-8.,-9.));
#2006=CARTESIAN_POINT('Origin',(0.,-8.,-9.));
#2007=CARTESIAN_POINT('',(4.,0.,-9.));
#2008=CARTESIAN_POINT('Origin',(0.,0.,-9.));
#2009=CARTESIAN_POINT('',(-6.7,8.38218383591993E-14,-9.));
#2010=CARTESIAN_POINT('Origin',(-8.,8.38218383591993E-14,-9.));
#2011=CARTESIAN_POINT('',(1.3,8.,-9.));
#2012=CARTESIAN_POINT('Origin',(0.,8.,-9.));
#2013=CARTESIAN_POINT('Origin',(0.,-55.,30.));
#2014=CARTESIAN_POINT('',(-3.1,-55.,30.));
#2015=CARTESIAN_POINT('Origin',(0.,-55.,30.));
#2016=CARTESIAN_POINT('',(-3.1,-55.,27.1));
#2017=CARTESIAN_POINT('',(-3.1,-55.,30.));
#2018=CARTESIAN_POINT('Origin',(0.,-55.,27.1));
#2019=CARTESIAN_POINT('Origin',(0.,-55.,27.1));
#2020=CARTESIAN_POINT('Origin',(55.,0.,30.));
#2021=CARTESIAN_POINT('',(51.9,3.7964050773568E-16,30.));
#2022=CARTESIAN_POINT('Origin',(55.,0.,30.));
#2023=CARTESIAN_POINT('',(51.9,3.7964050773568E-16,27.1));
#2024=CARTESIAN_POINT('',(51.9,3.7964050773568E-16,30.));
#2025=CARTESIAN_POINT('Origin',(55.,0.,27.1));
#2026=CARTESIAN_POINT('Origin',(55.,0.,27.1));
#2027=CARTESIAN_POINT('Origin',(-55.,0.,30.));
#2028=CARTESIAN_POINT('',(-58.1,3.7964050773568E-16,30.));
#2029=CARTESIAN_POINT('Origin',(-55.,0.,30.));
#2030=CARTESIAN_POINT('',(-58.1,3.7964050773568E-16,27.1));
#2031=CARTESIAN_POINT('',(-58.1,3.7964050773568E-16,30.));
#2032=CARTESIAN_POINT('Origin',(-55.,0.,27.1));
#2033=CARTESIAN_POINT('Origin',(-55.,0.,27.1));
#2034=CARTESIAN_POINT('Origin',(0.,55.,30.));
#2035=CARTESIAN_POINT('',(-3.1,55.,30.));
#2036=CARTESIAN_POINT('Origin',(0.,55.,30.));
#2037=CARTESIAN_POINT('',(-3.1,55.,27.1));
#2038=CARTESIAN_POINT('',(-3.1,55.,30.));
#2039=CARTESIAN_POINT('Origin',(0.,55.,27.1));
#2040=CARTESIAN_POINT('Origin',(0.,55.,27.1));
#2041=CARTESIAN_POINT('Origin',(-35.,4.00000000000001,0.));
#2042=CARTESIAN_POINT('',(-35.,4.00000000000001,0.));
#2043=CARTESIAN_POINT('',(-35.,4.00000000000001,0.));
#2044=CARTESIAN_POINT('',(-35.,30.,0.));
#2045=CARTESIAN_POINT('',(-35.,2.,0.));
#2046=CARTESIAN_POINT('',(-35.,30.,0.));
#2047=CARTESIAN_POINT('Origin',(-43.,4.00000000000001,0.));
#2048=CARTESIAN_POINT('',(-43.,4.00000000000001,0.));
#2049=CARTESIAN_POINT('',(-43.,4.00000000000001,0.));
#2050=CARTESIAN_POINT('',(-21.5,4.00000000000001,0.));
#2051=CARTESIAN_POINT('Origin',(-43.,-3.99999999999999,0.));
#2052=CARTESIAN_POINT('',(-43.,-3.99999999999999,0.));
#2053=CARTESIAN_POINT('',(-43.,-3.99999999999999,0.));
#2054=CARTESIAN_POINT('',(-43.,-2.,0.));
#2055=CARTESIAN_POINT('Origin',(-35.,-3.99999999999999,0.));
#2056=CARTESIAN_POINT('',(-35.,-3.99999999999999,0.));
#2057=CARTESIAN_POINT('',(-35.,-3.99999999999999,0.));
#2058=CARTESIAN_POINT('',(-17.5,-3.99999999999999,0.));
#2059=CARTESIAN_POINT('Origin',(-35.,-30.,0.));
#2060=CARTESIAN_POINT('',(-35.,-15.,0.));
#2061=CARTESIAN_POINT('Origin',(-35.,30.,0.));
#2062=CARTESIAN_POINT('',(-17.5,30.,0.));
#2063=CARTESIAN_POINT('Origin',(0.,0.,0.));
#2064=CARTESIAN_POINT('',(50.,6.12323399573677E-15,30.));
#2065=CARTESIAN_POINT('Origin',(0.,0.,30.));
#2066=CARTESIAN_POINT('',(50.,6.12323399573677E-15,17.));
#2067=CARTESIAN_POINT('',(50.,6.12323399573677E-15,0.));
#2068=CARTESIAN_POINT('',(49.6386945839634,-6.00000000000001,17.));
#2069=CARTESIAN_POINT('Origin',(0.,0.,17.));
#2070=CARTESIAN_POINT('',(49.6386945839634,-6.,0.));
#2071=CARTESIAN_POINT('',(-49.6386945839634,-6.00000000000001,17.));
#2072=CARTESIAN_POINT('',(-49.6386945839634,-6.,0.));
#2073=CARTESIAN_POINT('Origin',(0.,0.,17.));
#2074=CARTESIAN_POINT('Origin',(0.,0.,17.));
#2075=CARTESIAN_POINT('Origin',(60.,-6.00000000000001,11.));
#2076=CARTESIAN_POINT('',(60.,-6.00000000000001,17.));
#2077=CARTESIAN_POINT('Origin',(60.,-6.00000000000001,17.));
#2078=CARTESIAN_POINT('Origin',(60.,-6.00000000000001,17.));
#2079=CARTESIAN_POINT('',(60.,-6.00000000000001,17.));
#2080=CARTESIAN_POINT('Origin',(60.,-6.00000000000001,11.));
#2081=CARTESIAN_POINT('Origin',(0.,0.,30.));
#2082=CARTESIAN_POINT('Origin',(0.,0.,-4.));
#2083=CARTESIAN_POINT('',(-50.,6.12323399573677E-15,-14.));
#2084=CARTESIAN_POINT('Origin',(0.,0.,-14.));
#2085=CARTESIAN_POINT('',(-50.,6.12323399573677E-15,-4.));
#2086=CARTESIAN_POINT('Origin',(0.,0.,-14.));
#2087=CARTESIAN_POINT('Origin',(0.,0.,0.));
#2088=CARTESIAN_POINT('',(4.,4.89858719658941E-16,0.));
#2089=CARTESIAN_POINT('',(4.,-4.89858719658941E-16,0.));
#2090=CARTESIAN_POINT('Origin',(0.,0.,0.));
#2091=CARTESIAN_POINT('Origin',(8.,-8.38218383591993E-14,0.));
#2092=CARTESIAN_POINT('',(9.3,-8.39810424430885E-14,0.));
#2093=CARTESIAN_POINT('Origin',(0.,-8.,0.));
#2094=CARTESIAN_POINT('',(1.3,-8.,0.));
#2095=CARTESIAN_POINT('Origin',(-8.,8.38218383591993E-14,0.));
#2096=CARTESIAN_POINT('',(-6.7,8.36626342753102E-14,0.));
#2097=CARTESIAN_POINT('Origin',(0.,8.,0.));
#2098=CARTESIAN_POINT('',(1.3,8.,0.));
#2099=CARTESIAN_POINT('Origin',(0.,0.,0.));
#2100=UNCERTAINTY_MEASURE_WITH_UNIT(LENGTH_MEASURE(0.01),#2104,
'DISTANCE_ACCURACY_VALUE',
'Maximum model space distance between geometric entities at asserted c
onnectivities');
#2101=UNCERTAINTY_MEASURE_WITH_UNIT(LENGTH_MEASURE(0.01),#2104,
'DISTANCE_ACCURACY_VALUE',
'Maximum model space distance between geometric entities at asserted c
onnectivities');
#2102=(
GEOMETRIC_REPRESENTATION_CONTEXT(3)
GLOBAL_UNCERTAINTY_ASSIGNED_CONTEXT((#2100))
GLOBAL_UNIT_ASSIGNED_CONTEXT((#2104,#2106,#2107))
REPRESENTATION_CONTEXT('','3D')
);
#2103=(
GEOMETRIC_REPRESENTATION_CONTEXT(3)
GLOBAL_UNCERTAINTY_ASSIGNED_CONTEXT((#2101))
GLOBAL_UNIT_ASSIGNED_CONTEXT((#2104,#2106,#2107))
REPRESENTATION_CONTEXT('','3D')
);
#2104=(
LENGTH_UNIT()
NAMED_UNIT(*)
SI_UNIT(.MILLI.,.METRE.)
);
#2105=(
LENGTH_UNIT()
NAMED_UNIT(*)
SI_UNIT(.CENTI.,.METRE.)
);
#2106=(
NAMED_UNIT(*)
PLANE_ANGLE_UNIT()
SI_UNIT($,.RADIAN.)
);
#2107=(
NAMED_UNIT(*)
SI_UNIT($,.STERADIAN.)
SOLID_ANGLE_UNIT()
);
#2108=SHAPE_DEFINITION_REPRESENTATION(#2109,#2110);
#2109=PRODUCT_DEFINITION_SHAPE('',$,#2112);
#2110=SHAPE_REPRESENTATION('',(#1172),#2102);
#2111=PRODUCT_DEFINITION_CONTEXT('part definition',#2116,'design');
#2112=PRODUCT_DEFINITION('rotor_body','rotor_body',#2113,#2111);
#2113=PRODUCT_DEFINITION_FORMATION('',$,#2118);
#2114=PRODUCT_RELATED_PRODUCT_CATEGORY('rotor_body','rotor_body',(#2118));
#2115=APPLICATION_PROTOCOL_DEFINITION('international standard',
'automotive_design',2009,#2116);
#2116=APPLICATION_CONTEXT(
'Core Data for Automotive Mechanical Design Process');
#2117=PRODUCT_CONTEXT('part definition',#2116,'mechanical');
#2118=PRODUCT('rotor_body','rotor_body',$,(#2117));
#2119=PRESENTATION_STYLE_ASSIGNMENT((#2120));
#2120=SURFACE_STYLE_USAGE(.BOTH.,#2123);
#2121=SURFACE_STYLE_RENDERING_WITH_PROPERTIES($,#2127,(#2122));
#2122=SURFACE_STYLE_TRANSPARENT(0.);
#2123=SURFACE_SIDE_STYLE('',(#2124,#2121));
#2124=SURFACE_STYLE_FILL_AREA(#2125);
#2125=FILL_AREA_STYLE('',(#2126));
#2126=FILL_AREA_STYLE_COLOUR('',#2127);
#2127=COLOUR_RGB('',0.0196078431372549,0.0196078431372549,0.0196078431372549);
ENDSEC;
END-ISO-10303-21;
